<svg width="50" height="50" viewBox="0 0 50 50" fill="none" xmlns="http://www.w3.org/2000/svg">
<path fill-rule="evenodd" clip-rule="evenodd" d="M49.7688 24.8558C49.7688 24.8672 49.7861 24.8786 49.7861 24.8901C49.7861 24.8981 49.7824 24.9036 49.7795 24.9077C49.7762 24.9126 49.7742 24.9156 49.7803 24.9187C49.7803 24.953 49.7861 24.9816 49.7803 25.0102L46.5082 37.2179C46.5025 37.2322 46.4939 37.2436 46.4852 37.255C46.4766 37.2665 46.468 37.2779 46.4623 37.2922C46.4594 37.2979 46.4607 37.3051 46.4623 37.3123C46.4635 37.3194 46.4652 37.3266 46.4623 37.3323C46.4508 37.3437 46.4336 37.3437 46.4279 37.3552C46.4217 37.3657 46.4168 37.3761 46.4123 37.3863C46.4041 37.404 46.3967 37.4207 46.382 37.4352L41.9143 41.9029L37.4467 46.3709C37.4375 46.3799 37.4263 46.3865 37.4148 46.3918C37.3979 46.4 37.3802 46.4061 37.3666 46.4164C37.3551 46.4221 37.3551 46.4393 37.3437 46.4451C37.3326 46.4525 37.3191 46.4549 37.3063 46.4578C37.2993 46.459 37.2925 46.4602 37.2865 46.4623C37.2769 46.4672 37.2694 46.4729 37.2622 46.4783C37.252 46.4861 37.2426 46.4934 37.2293 46.4967L25.0217 49.7688C24.9816 49.7803 24.9358 49.7861 24.8958 49.7861C24.85 49.7861 24.81 49.7803 24.77 49.7688L12.5623 46.5025C12.5509 46.4996 12.5423 46.4922 12.5337 46.4852C12.5251 46.4779 12.5166 46.4709 12.5051 46.468C12.4965 46.4623 12.4865 46.4607 12.4765 46.4594C12.4665 46.4578 12.4565 46.4566 12.4479 46.4508C12.4416 46.4475 12.4387 46.441 12.4365 46.4357C12.4347 46.4311 12.4333 46.4279 12.4307 46.4279C12.4202 46.4217 12.4098 46.4168 12.3995 46.4123C12.3819 46.4041 12.3652 46.3967 12.3507 46.382L3.41517 37.4467C3.39228 37.4238 3.38657 37.3895 3.36939 37.3666C3.36414 37.3614 3.35768 37.3585 3.35168 37.3559C3.34463 37.3527 3.33817 37.3499 3.33507 37.3437C3.33014 37.3339 3.33797 37.3197 3.33654 37.3087C3.33632 37.3069 3.33587 37.3052 3.33507 37.3036C3.3315 37.2989 3.32767 37.2941 3.32379 37.2893C3.30911 37.271 3.29382 37.2519 3.28932 37.2293L1.65323 31.1255L0.0171599 25.0216C0.013833 25.005 0.0143833 24.9864 0.0154089 24.9682C0.0161593 24.955 0.0171599 24.9421 0.0171599 24.9301C0.0171599 24.9244 0.0128574 24.9187 0.00857996 24.913C0.00430246 24.9073 0 24.9015 0 24.8958C0 24.8901 0.00430246 24.8843 0.00857996 24.8786C0.0128574 24.8729 0.0171599 24.8672 0.0171599 24.8615C0.0171599 24.8272 0.0114316 24.7986 0.0171599 24.77L3.28359 12.5623C3.29022 12.5457 3.30068 12.533 3.31053 12.5197C3.31768 12.51 3.32454 12.5 3.32937 12.488C3.33222 12.4822 3.3308 12.4751 3.32937 12.468C3.32794 12.4608 3.32649 12.4536 3.32937 12.4479C3.33462 12.4427 3.34107 12.4398 3.34705 12.4372C3.35413 12.4341 3.36059 12.4312 3.36369 12.425C3.37514 12.4059 3.38152 12.3868 3.3913 12.3694C3.39616 12.3607 3.40186 12.3525 3.40944 12.3449L7.87717 7.87717L12.3449 3.40944C12.3581 3.39631 12.375 3.38883 12.3913 3.3816C12.4034 3.37623 12.4153 3.37099 12.425 3.36368C12.4308 3.36082 12.4336 3.3551 12.4365 3.34938C12.4393 3.34366 12.4422 3.33794 12.4479 3.33508C12.4536 3.33222 12.4593 3.33365 12.4651 3.33508C12.4708 3.33651 12.4765 3.33794 12.4823 3.33508C12.4948 3.33003 12.5063 3.32166 12.5177 3.31337C12.5321 3.30286 12.5463 3.29251 12.5623 3.28931L24.77 0.0171614C24.7892 0.0133077 24.8111 0.0146459 24.832 0.0159295C24.8422 0.0165517 24.8522 0.0171614 24.8615 0.0171614C24.8709 0.0171614 24.8769 0.0119632 24.8823 0.00729012C24.8866 0.00347075 24.8907 0 24.8958 0C24.9016 0 24.9058 0.00428996 24.9101 0.00857996C24.9144 0.0128699 24.9187 0.0171614 24.9244 0.0171614C24.9337 0.0171614 24.9437 0.0165517 24.9539 0.0159295C24.9748 0.0146459 24.9967 0.0133077 25.0159 0.0171614L37.2236 3.28931C37.2396 3.29251 37.2538 3.30286 37.2682 3.31337C37.2796 3.32166 37.2911 3.33003 37.3036 3.33508C37.3094 3.33794 37.3151 3.33651 37.3209 3.33507C37.3266 3.33365 37.3323 3.33222 37.338 3.33508C37.3437 3.33794 37.3466 3.34367 37.3495 3.34939C37.3523 3.35511 37.3552 3.36082 37.3609 3.36368C37.3713 3.36998 37.3818 3.37473 37.392 3.37936C37.4097 3.38735 37.4265 3.39496 37.441 3.40944L46.3709 12.3392C46.384 12.3523 46.3914 12.3693 46.3988 12.3856C46.4041 12.3977 46.409 12.4095 46.4164 12.4193C46.4217 12.4245 46.4283 12.4274 46.434 12.43C46.4414 12.4332 46.4475 12.436 46.4508 12.4422C46.4537 12.4479 46.4525 12.455 46.4508 12.4622C46.4496 12.4693 46.4479 12.4765 46.4508 12.4822C46.468 12.5051 46.491 12.528 46.4967 12.5566L49.7688 24.7642C49.7725 24.7835 49.7713 24.8054 49.7701 24.8264C49.7693 24.8365 49.7688 24.8464 49.7688 24.8558ZM44.0824 29.5352L47.332 30.4104L48.4758 26.1372L44.0824 29.5352ZM39.1972 38.5107L41.5713 40.8904L44.7004 37.767L39.1972 38.5107ZM10.6059 38.5107L5.09127 37.767L8.22041 40.8904L10.6059 38.5107ZM5.71484 29.5409L1.31 26.1372L2.45411 30.4104L5.71484 29.5409ZM5.7034 20.2507L2.45411 19.3755L1.31 23.643L5.7034 20.2507ZM10.5945 11.2752L8.22041 8.89545L5.09127 12.0189L10.5945 11.2752ZM39.18 11.2752L44.6947 12.0189L41.5656 8.89545L39.18 11.2752ZM36.5486 19.1695L37.8471 24.0148L41.9832 20.3079L36.5486 19.1695ZM30.9882 35.4616L35.4559 30.9939L37.092 24.8958L35.4559 18.7977L30.9882 14.33L24.8901 12.6939L18.792 14.33L14.3243 18.7977L12.6882 24.8958L14.3243 30.9939L18.792 35.4616L24.8901 37.0977L30.9882 35.4616ZM32.1266 14.1126L35.6733 17.6593L37.4009 12.385L32.1266 14.1126ZM30.296 7.05914L31.6003 13.2774L37.6412 11.2981L36.7145 4.4277L30.296 7.05914ZM30.6106 13.2316L29.4723 7.80283L25.771 11.9331L30.6106 13.2316ZM20.6569 6.75025L24.8958 11.4811L29.1347 6.75025L24.8958 1.26424L20.6569 6.75025ZM19.1753 13.2373L24.0148 11.9388L20.3136 7.80852L19.1753 13.2373ZM12.1447 11.2981L18.1856 13.2774L19.4956 7.05914L13.0772 4.4277L12.1447 11.2981ZM14.1126 17.6593L17.6593 14.1126L12.385 12.385L14.1126 17.6593ZM7.80283 20.3136L11.9388 24.0148L13.2316 19.1752L7.80283 20.3136ZM11.4811 24.8901L6.75025 20.6511L1.26425 24.8901L6.75025 29.129L11.4811 24.8901ZM13.2373 30.6106L11.9388 25.7653L7.80283 29.4723L13.2373 30.6106ZM17.6593 35.6733L14.1126 32.1266L12.385 37.4009L17.6593 35.6733ZM19.4899 42.7266L18.1856 36.5085L12.1504 38.4878L13.0714 45.3582L19.4899 42.7266ZM19.1753 36.5543L20.3136 41.9832L24.0148 37.8528L19.1753 36.5543ZM29.1347 43.0357L24.8958 38.3048L20.6569 43.0357L24.8958 48.5217L29.1347 43.0357ZM30.6106 36.5486L25.771 37.8471L29.4723 41.9775L30.6106 36.5486ZM37.6412 38.4878L31.6003 36.5085L30.2903 42.7266L36.7087 45.3582L37.6412 38.4878ZM35.679 32.1266L32.1323 35.6733L37.4066 37.4009L35.679 32.1266ZM41.9832 29.4665L37.8471 25.7653L36.5543 30.6049L41.9832 29.4665ZM38.3105 24.8958L43.0414 29.1347L48.5275 24.8958L43.0414 20.6569L38.3105 24.8958ZM36.5085 18.1856L42.7266 19.4899L45.3582 13.0772L38.4878 12.1447L36.5085 18.1856ZM37.767 5.09127L38.5107 10.5887L40.8904 8.21471L37.767 5.09127ZM31.3314 2.70009L30.4561 5.95508L35.6047 3.8442L31.3314 2.70009ZM26.1372 1.31L29.5352 5.7034L30.4047 2.45411L26.1372 1.31ZM19.3755 2.44839L20.245 5.7091L23.6487 1.30428L19.3755 2.44839ZM14.1812 3.8442L19.3183 5.94934L18.4488 2.70009L14.1812 3.8442ZM8.89545 8.22041L11.2752 10.6059L12.0246 5.09127L8.89545 8.22041ZM13.2774 18.1856L11.2981 12.1447L4.4277 13.0772L7.05914 19.4899L13.2774 18.1856ZM13.2774 31.6003L7.05914 30.296L4.4277 36.7087L11.2981 37.6412L13.2774 31.6003ZM12.0189 44.6947L11.2752 39.1972L8.89545 41.5713L12.0189 44.6947ZM18.4545 47.0857L19.3297 43.8307L14.1812 45.9418L18.4545 47.0857ZM23.6487 48.4816L20.2507 44.0881L19.3812 47.3373L23.6487 48.4816ZM30.4161 47.3373L29.5466 44.0766L26.1429 48.4816L30.4161 47.3373ZM35.6047 45.9418L30.4676 43.8365L31.3371 47.0857L35.6047 45.9418ZM40.8904 41.5656L38.5107 39.18L37.7613 44.6947L40.8904 41.5656ZM36.5085 31.6003L38.4878 37.6412L45.3582 36.7145L42.7266 30.296L36.5085 31.6003ZM44.0709 20.245L48.4758 23.6487L47.332 19.3755L44.0709 20.245ZM43.8365 19.3183L47.0857 18.4488L45.9418 14.1812L43.8365 19.3183ZM5.95508 19.3297L3.84421 14.1812L2.70011 18.4545L5.95508 19.3297ZM5.94939 30.4676L2.70011 31.3371L3.84421 35.6047L5.94939 30.4676ZM43.8307 30.4562L45.9418 35.6047L47.0857 31.3314L43.8307 30.4562ZM31.5094 27.922C31.5094 26.3718 30.2738 24.7814 26.6927 24.5126H26.6984V24.4668C29.37 23.9748 30.5198 22.4589 30.5198 21.1031C30.5198 19.3355 28.9523 18.0941 25.7889 18.0941C25.6023 18.0941 25.3001 18.1 24.9278 18.1073C24.3302 18.119 23.5518 18.1342 22.7799 18.1342C21.7044 18.1342 20.5203 18.117 19.8739 18.077V18.4602C21.0809 18.5175 21.304 18.7177 21.304 20.1077V29.6039C21.304 30.9997 21.0866 31.1942 19.8739 31.2514V31.6347C20.5203 31.5946 21.6873 31.5775 22.8199 31.5775C23.8302 31.5775 24.6702 31.5996 25.3055 31.6163C25.6917 31.6265 26.0023 31.6347 26.2294 31.6347C29.5073 31.6347 31.5094 30.3304 31.5094 27.922ZM24.3473 24.4325V20.1077C24.3473 18.792 24.5532 18.4659 25.5372 18.4602C26.893 18.4602 27.4135 19.4327 27.4135 21.3091C27.4135 22.9737 26.973 24.4325 25.1711 24.4325H24.3473ZM25.1482 24.7643C27.4193 24.7643 28.3288 25.8912 28.3288 27.8362C28.3288 29.9871 27.5336 31.1942 25.663 31.1942C24.5704 31.1942 24.3473 30.9425 24.3473 29.6039V24.7643H25.1482Z" fill="#F1AF87"/>
</svg>
