<svg width="32" height="52" viewBox="0 0 32 52" fill="none" xmlns="http://www.w3.org/2000/svg">
<path d="M24.6689 9.184C24.3702 7.94667 23.8155 6.85867 23.0049 5.92C22.0235 4.81066 20.7009 4.02133 19.0369 3.552V18.656C22.4502 19.4667 25.1595 20.7467 27.1649 22.496C29.7675 24.7573 31.0689 27.6587 31.0689 31.2C31.0689 34.4853 30.0875 37.2587 28.1249 39.52C26.0342 41.952 23.0049 43.5093 19.0369 44.192V51.552H17.8209V44.384L14.4929 44.576L11.6129 44.448V51.552H10.3969V44.256C7.92221 43.872 5.95955 43.1253 4.50888 42.016C3.10088 40.9067 2.09821 39.5413 1.50088 37.92C1.20221 37.024 1.05288 36.1707 1.05288 35.36C1.05288 34.1227 1.37288 33.0773 2.01288 32.224C2.65288 31.3707 3.20755 30.9013 3.67688 30.816C4.18888 30.7307 4.63688 30.688 5.02088 30.688C6.04488 30.688 6.85555 30.9653 7.45288 31.52C8.22088 32.2453 8.60488 33.312 8.60488 34.72C8.60488 35.616 8.30621 36.32 7.70888 36.832C7.11155 37.344 6.45021 37.6 5.72488 37.6C5.34088 37.6 5.02088 37.5573 4.76488 37.472C4.55155 37.344 4.38088 37.1733 4.25288 36.96C4.21021 37.1307 4.18888 37.3653 4.18888 37.664C4.18888 38.7733 4.76488 39.8613 5.91688 40.928C7.06888 41.9947 8.56221 42.7413 10.3969 43.168V25.248C7.28221 24.3093 4.99955 23.072 3.54888 21.536C1.79955 19.7013 0.924879 17.184 0.924879 13.984C0.924879 10.9973 1.82088 8.50133 3.61288 6.496C5.23421 4.66133 7.49555 3.40267 10.3969 2.72V0.415997H11.6129V2.464C12.5089 2.37866 13.1915 2.31467 13.6609 2.272C14.1302 2.22933 14.5782 2.208 15.0049 2.208L17.8209 2.336V0.415997H19.0369V2.464C20.6155 2.72 21.8955 3.14667 22.8769 3.744C23.9009 4.34133 24.8395 5.13067 25.6929 6.112C27.0155 7.60533 27.6769 9.26933 27.6769 11.104C27.6769 13.1093 26.9515 14.3893 25.5009 14.944C25.1169 15.1147 24.6689 15.2 24.1569 15.2C22.1942 15.2 21.0849 14.24 20.8289 12.32C20.7009 11.424 20.8929 10.6133 21.4049 9.888C21.9169 9.12 22.5569 8.736 23.3249 8.736C23.5809 8.736 23.8155 8.77867 24.0289 8.864C24.2422 8.90666 24.4555 9.01333 24.6689 9.184ZM11.6129 43.424L13.5329 43.552C14.9835 43.552 16.4129 43.4453 17.8209 43.232V27.232L13.5329 26.144L11.6129 25.632V43.424ZM19.0369 42.976C21.2982 42.3787 22.9195 41.44 23.9009 40.16C24.9249 38.8373 25.4369 37.216 25.4369 35.296C25.4369 33.12 24.9462 31.4987 23.9649 30.432C22.9835 29.3227 21.3409 28.384 19.0369 27.616V42.976ZM11.6129 17.184C12.0822 17.312 12.7009 17.4613 13.4689 17.632C14.2795 17.8027 15.0475 17.9307 15.7729 18.016L17.8209 18.336V3.296L15.1329 3.104C14.4502 3.104 13.8955 3.12533 13.4689 3.168C13.0422 3.21067 12.4235 3.296 11.6129 3.424V17.184ZM10.3969 16.8V3.744C8.77555 4.256 7.55955 4.93866 6.74888 5.792C5.72488 6.85867 5.21288 8.20266 5.21288 9.824C5.21288 13.152 6.94088 15.4773 10.3969 16.8Z" fill="#F1AF87"/>
</svg>
