<svg width="161" height="161" viewBox="0 0 161 161" fill="none" xmlns="http://www.w3.org/2000/svg">
<path d="M80.3908 141.593C46.6477 141.593 19.1936 114.139 19.1936 80.3955C19.1936 46.6524 46.6477 19.1983 80.3908 19.1983C114.134 19.1983 141.588 46.6524 141.588 80.3955C141.593 114.139 114.139 141.593 80.3908 141.593ZM80.3908 20.5272C47.3827 20.5272 20.5274 47.3825 20.5274 80.3907C20.5274 113.399 47.3827 140.254 80.3908 140.254C113.399 140.254 140.254 113.399 140.254 80.3907C140.254 47.3825 113.404 20.5272 80.3908 20.5272Z" fill="#FAC39D"/>
<path d="M80.439 27.2692L82.7804 24.7672L81.8848 23.6427H78.9884L78.0977 24.7672L80.439 27.2692Z" fill="#FAC39D"/>
<path d="M71.2146 28.0674L73.0839 25.1954L72.0081 24.2462L69.1556 24.7525L68.4692 26.0083L71.2146 28.0674Z" fill="#FAC39D"/>
<path d="M62.2679 30.4576L63.6114 27.3033L62.3847 26.5585L59.6636 27.5467L59.2109 28.9048L62.2679 30.4576Z" fill="#FAC39D"/>
<path d="M53.8709 34.3663L54.6449 31.0271L53.3112 30.5013L50.8043 31.9471L50.5901 33.3684L53.8709 34.3663Z" fill="#FAC39D"/>
<path d="M46.2821 39.6672L46.4671 36.2452L45.0603 35.9628L42.8406 37.8223L42.8795 39.2583L46.2821 39.6672Z" fill="#FAC39D"/>
<path d="M39.7253 46.2096L39.3165 42.807L37.8805 42.7729L36.021 44.9878L36.3033 46.3946L39.7253 46.2096Z" fill="#FAC39D"/>
<path d="M34.4099 53.7934L33.412 50.5126L31.9955 50.7267L30.5449 53.2336L31.0706 54.5674L34.4099 53.7934Z" fill="#FAC39D"/>
<path d="M30.4865 62.1806L28.9385 59.1237L27.5756 59.5812L26.5874 62.3023L27.337 63.5241L30.4865 62.1806Z" fill="#FAC39D"/>
<path d="M28.0866 71.1227L26.0275 68.3822L24.7668 69.0686L24.2654 71.9211L25.2146 72.9968L28.0866 71.1227Z" fill="#FAC39D"/>
<path d="M27.2688 80.3469L24.7668 78.0056L23.6423 78.9012V81.7927L24.7668 82.6883L27.2688 80.3469Z" fill="#FAC39D"/>
<path d="M28.0673 89.5714L25.1953 87.7021L24.2461 88.7779L24.7523 91.6256L26.0082 92.3119L28.0673 89.5714Z" fill="#FAC39D"/>
<path d="M30.4574 98.5182L27.3031 97.1747L26.5583 98.3965L27.5465 101.118L28.9046 101.575L30.4574 98.5182Z" fill="#FAC39D"/>
<path d="M34.366 106.915L31.0267 106.136L30.501 107.475L31.9467 109.982L33.3681 110.196L34.366 106.915Z" fill="#FAC39D"/>
<path d="M39.667 114.504L36.245 114.319L35.9626 115.726L37.8221 117.945L39.2581 117.906L39.667 114.504Z" fill="#FAC39D"/>
<path d="M46.2093 121.056L42.8068 121.47L42.7727 122.906L44.9875 124.765L46.3943 124.483L46.2093 121.056Z" fill="#FAC39D"/>
<path d="M53.7933 126.376L50.5125 127.374L50.7266 128.791L53.2335 130.241L54.5673 129.716L53.7933 126.376Z" fill="#FAC39D"/>
<path d="M62.1802 130.295L59.1233 131.848L59.5809 133.206L62.3019 134.199L63.5237 133.449L62.1802 130.295Z" fill="#FAC39D"/>
<path d="M71.1221 132.7L68.3816 134.759L69.0679 136.019L71.9205 136.521L72.9962 135.572L71.1221 132.7Z" fill="#FAC39D"/>
<path d="M80.3468 133.517L78.0054 136.019L78.901 137.139H81.7925L82.6881 136.019L80.3468 133.517Z" fill="#FAC39D"/>
<path d="M89.5711 132.719L87.7019 135.586L88.7777 136.54L91.6253 136.034L92.3116 134.773L89.5711 132.719Z" fill="#FAC39D"/>
<path d="M98.518 130.329L97.1746 133.478L98.3963 134.228L101.117 133.24L101.575 131.877L98.518 130.329Z" fill="#FAC39D"/>
<path d="M106.915 126.42L106.136 129.76L107.475 130.285L109.981 128.835L110.196 127.418L106.915 126.42Z" fill="#FAC39D"/>
<path d="M114.504 121.115L114.319 124.541L115.725 124.824L117.945 122.964L117.906 121.528L114.504 121.115Z" fill="#FAC39D"/>
<path d="M121.055 114.572L121.469 117.979L122.905 118.013L124.765 115.794L124.482 114.387L121.055 114.572Z" fill="#FAC39D"/>
<path d="M126.376 106.993L127.374 110.274L128.79 110.06L130.241 107.553L129.715 106.219L126.376 106.993Z" fill="#FAC39D"/>
<path d="M130.294 98.6058L131.847 101.663L133.205 101.205L134.198 98.4841L133.449 97.2574L130.294 98.6058Z" fill="#FAC39D"/>
<path d="M132.699 89.6639L134.758 92.4044L136.019 91.7181L136.52 88.8656L135.571 87.7898L132.699 89.6639Z" fill="#FAC39D"/>
<path d="M133.517 80.4396L136.019 82.781L137.139 81.8853V78.989L136.019 78.0982L133.517 80.4396Z" fill="#FAC39D"/>
<path d="M132.719 71.2151L135.586 73.0844L136.54 72.0086L136.034 69.1561L134.773 68.4697L132.719 71.2151Z" fill="#FAC39D"/>
<path d="M130.328 62.268L133.478 63.6115L134.227 62.3848L133.239 59.6638L131.876 59.2111L130.328 62.268Z" fill="#FAC39D"/>
<path d="M126.42 53.8713L129.759 54.6453L130.285 53.3115L128.834 50.8046L127.418 50.5905L126.42 53.8713Z" fill="#FAC39D"/>
<path d="M121.114 46.2824L124.541 46.4674L124.823 45.0606L122.964 42.8409L121.528 42.8799L121.114 46.2824Z" fill="#FAC39D"/>
<path d="M114.571 39.7257L117.979 39.3168L118.013 37.8808L115.793 36.0214L114.386 36.3037L114.571 39.7257Z" fill="#FAC39D"/>
<path d="M106.993 34.4102L110.274 33.4123L110.059 31.9958L107.553 30.5452L106.219 31.0709L106.993 34.4102Z" fill="#FAC39D"/>
<path d="M98.6057 30.4866L101.663 28.9386L101.205 27.5757L98.484 26.5875L97.2573 27.3372L98.6057 30.4866Z" fill="#FAC39D"/>
<path d="M89.6634 28.0872L92.4039 26.0281L91.7176 24.7674L88.8651 24.266L87.7893 25.2152L89.6634 28.0872Z" fill="#FAC39D"/>
<path d="M80.3906 131.799C52.0458 131.799 28.9824 108.74 28.9824 80.3905C28.9824 52.0457 52.0458 28.9823 80.3906 28.9823C108.735 28.9823 131.799 52.0457 131.799 80.3905C131.799 108.74 108.74 131.799 80.3906 131.799ZM80.3906 29.6541C52.4109 29.6541 29.6493 52.4156 29.6493 80.3954C29.6493 108.375 52.4109 131.137 80.3906 131.137C108.37 131.137 131.132 108.375 131.132 80.3954C131.132 52.4156 108.37 29.6541 80.3906 29.6541Z" fill="#FAC39D"/>
<path d="M81.5106 15.9221C81.5106 16.4381 81.092 16.8567 80.576 16.8567C80.06 16.8567 79.6414 16.4381 79.6414 15.9221C79.6414 15.4061 80.06 14.9875 80.576 14.9875C81.092 14.9826 81.5106 15.4012 81.5106 15.9221Z" fill="#FAC39D"/>
<path d="M81.5106 12.1742C81.5106 12.6901 81.092 13.1088 80.576 13.1088C80.06 13.1088 79.6414 12.6901 79.6414 12.1742C79.6414 11.6582 80.06 11.2396 80.576 11.2396C81.092 11.2396 81.5106 11.6582 81.5106 12.1742Z" fill="#FAC39D"/>
<path d="M81.5106 8.42594C81.5106 8.94192 81.092 9.36055 80.576 9.36055C80.06 9.36055 79.6414 8.94192 79.6414 8.42594C79.6414 7.90996 80.06 7.49133 80.576 7.49133C81.092 7.49133 81.5106 7.90996 81.5106 8.42594Z" fill="#FAC39D"/>
<path d="M81.5106 4.68251C81.5106 5.19849 81.092 5.61712 80.576 5.61712C80.06 5.61712 79.6414 5.19849 79.6414 4.68251C79.6414 4.16653 80.06 3.74791 80.576 3.74791C81.092 3.74304 81.5106 4.16653 81.5106 4.68251Z" fill="#FAC39D"/>
<path d="M81.5111 0.934604C81.5111 1.45058 81.0924 1.86921 80.5765 1.86921C80.0605 1.86921 79.6418 1.45058 79.6418 0.934604C79.6418 0.418624 80.0605 0 80.5765 0C81.0924 0 81.5111 0.418624 81.5111 0.934604Z" fill="#FAC39D"/>
<path d="M75.888 16.0681C75.9319 16.5841 75.5522 17.0368 75.0362 17.0806C74.5202 17.1244 74.0675 16.7447 74.0237 16.2288C73.9799 15.7128 74.3596 15.2601 74.8756 15.2163C75.3915 15.1725 75.8442 15.5521 75.888 16.0681Z" fill="#FAC39D"/>
<path d="M75.5619 12.3346C75.6057 12.8506 75.226 13.3033 74.71 13.3471C74.1941 13.3909 73.7413 13.0112 73.6975 12.4952C73.6537 11.9793 74.0334 11.5266 74.5494 11.4827C75.0605 11.4389 75.5181 11.8186 75.5619 12.3346Z" fill="#FAC39D"/>
<path d="M75.2357 8.60583C75.2795 9.1218 74.8998 9.5745 74.3839 9.61831C73.8679 9.66212 73.4152 9.28244 73.3714 8.76646C73.3276 8.25048 73.7072 7.79778 74.2232 7.75397C74.7343 7.7053 75.1919 8.08985 75.2357 8.60583Z" fill="#FAC39D"/>
<path d="M74.9098 4.8722C74.9536 5.38818 74.5739 5.84088 74.0579 5.88469C73.5419 5.9285 73.0892 5.54882 73.0454 5.03283C73.0016 4.51685 73.3813 4.06416 73.8973 4.02035C74.4084 3.97654 74.866 4.35622 74.9098 4.8722Z" fill="#FAC39D"/>
<path d="M74.5836 1.13889C74.6274 1.65487 74.2477 2.10757 73.7318 2.15138C73.2158 2.19519 72.7631 1.8155 72.7193 1.29952C72.6755 0.783542 73.0551 0.330842 73.5711 0.287032C74.0822 0.243223 74.5398 0.627774 74.5836 1.13889Z" fill="#FAC39D"/>
<path d="M70.2997 16.7057C70.3873 17.2168 70.0514 17.6987 69.5403 17.7912C69.0292 17.8789 68.5473 17.543 68.4548 17.0319C68.3672 16.5208 68.7031 16.0388 69.2142 15.9464C69.7253 15.8539 70.2072 16.1946 70.2997 16.7057Z" fill="#FAC39D"/>
<path d="M69.6476 13.0163C69.7352 13.5274 69.3993 14.0093 68.8882 14.1018C68.3771 14.1894 67.8952 13.8535 67.8027 13.3424C67.7151 12.8313 68.051 12.3494 68.5621 12.2569C69.0732 12.1644 69.56 12.5052 69.6476 13.0163Z" fill="#FAC39D"/>
<path d="M69.0001 9.32641C69.0877 9.83752 68.7519 10.3194 68.2407 10.4119C67.7296 10.4995 67.2477 10.1637 67.1552 9.65255C67.0676 9.14144 67.4035 8.65953 67.9146 8.56705C68.4209 8.47943 68.9076 8.8153 69.0001 9.32641Z" fill="#FAC39D"/>
<path d="M68.348 5.63663C68.4356 6.14774 68.0998 6.62964 67.5887 6.72213C67.0775 6.80975 66.5956 6.47388 66.5031 5.96277C66.4155 5.45166 66.7514 4.96975 67.2625 4.87726C67.7736 4.78964 68.2604 5.13039 68.348 5.63663Z" fill="#FAC39D"/>
<path d="M67.6957 1.94687C67.7833 2.45798 67.4474 2.93988 66.9363 3.03237C66.4252 3.11999 65.9433 2.78412 65.8508 2.273C65.7632 1.76189 66.0991 1.27999 66.6102 1.1875C67.1213 1.09988 67.608 1.44062 67.6957 1.94687Z" fill="#FAC39D"/>
<path d="M64.7846 17.8257C64.9161 18.3271 64.624 18.8382 64.1226 18.9745C63.6212 19.1108 63.1101 18.8139 62.9738 18.3125C62.8424 17.8111 63.1345 17.3 63.6358 17.1637C64.1372 17.0323 64.6532 17.3292 64.7846 17.8257Z" fill="#FAC39D"/>
<path d="M63.8163 14.2089C63.9478 14.7103 63.6557 15.2214 63.1543 15.3577C62.6529 15.4891 62.1418 15.1971 62.0055 14.6957C61.8692 14.1943 62.1662 13.6832 62.6675 13.5469C63.1689 13.4106 63.6849 13.7075 63.8163 14.2089Z" fill="#FAC39D"/>
<path d="M62.8476 10.5923C62.979 11.0937 62.6869 11.6048 62.1856 11.7411C61.6842 11.8774 61.1731 11.5805 61.0368 11.0791C60.9005 10.5777 61.1974 10.0666 61.6988 9.93033C62.2002 9.79403 62.7161 10.091 62.8476 10.5923Z" fill="#FAC39D"/>
<path d="M60.9734 8.14869C61.4896 8.14869 61.908 7.73026 61.908 7.21409C61.908 6.69792 61.4896 6.27948 60.9734 6.27948C60.4573 6.27948 60.0388 6.69792 60.0388 7.21409C60.0388 7.73026 60.4573 8.14869 60.9734 8.14869Z" fill="#FAC39D"/>
<path d="M60.9101 3.35394C61.0415 3.85531 60.7494 4.36643 60.2481 4.50272C59.7467 4.63902 59.2356 4.34209 59.0993 3.84071C58.963 3.33933 59.2599 2.82822 59.7613 2.69192C60.2627 2.55563 60.7738 2.85256 60.9101 3.35394Z" fill="#FAC39D"/>
<path d="M59.391 19.4271C59.5663 19.9139 59.318 20.4493 58.8312 20.6294C58.3445 20.8047 57.809 20.5564 57.6289 20.0696C57.4537 19.5829 57.7019 19.0474 58.1887 18.8673C58.6803 18.6872 59.2158 18.9403 59.391 19.4271Z" fill="#FAC39D"/>
<path d="M58.1105 15.9029C58.2858 16.3897 58.0375 16.9252 57.5507 17.1053C57.0639 17.2805 56.5285 17.0323 56.3484 16.5455C56.1731 16.0587 56.4214 15.5233 56.9082 15.3431C57.3998 15.1679 57.9353 15.421 58.1105 15.9029Z" fill="#FAC39D"/>
<path d="M56.8307 12.3835C57.006 12.8703 56.7577 13.4058 56.2709 13.5859C55.7842 13.7611 55.2487 13.5128 55.0686 13.0261C54.8934 12.5393 55.1416 12.0038 55.6284 11.8237C56.1152 11.6485 56.6555 11.9016 56.8307 12.3835Z" fill="#FAC39D"/>
<path d="M55.5502 8.86416C55.7254 9.35094 55.4772 9.88639 54.9904 10.0665C54.5036 10.2417 53.9682 9.99348 53.7881 9.5067C53.6128 9.01993 53.8611 8.48448 54.3479 8.30437C54.8346 8.12914 55.375 8.37739 55.5502 8.86416Z" fill="#FAC39D"/>
<path d="M54.2702 5.34488C54.4454 5.83165 54.1972 6.3671 53.7104 6.54721C53.2236 6.72245 52.6882 6.47419 52.508 5.98742C52.3328 5.50064 52.5811 4.96519 53.0678 4.78509C53.5546 4.60985 54.0901 4.8581 54.2702 5.34488Z" fill="#FAC39D"/>
<path d="M54.1584 21.4864C54.3774 21.9537 54.173 22.5135 53.7057 22.7325C53.2384 22.9516 52.6786 22.7471 52.4596 22.2798C52.2405 21.8125 52.445 21.2527 52.9123 21.0337C53.3844 20.8146 53.9394 21.0191 54.1584 21.4864Z" fill="#FAC39D"/>
<path d="M52.5764 18.0937C52.7954 18.561 52.591 19.1207 52.1237 19.3398C51.6564 19.5588 51.0966 19.3544 50.8775 18.8871C50.6585 18.4198 50.8629 17.86 51.3302 17.641C51.8024 17.4219 52.3573 17.6264 52.5764 18.0937Z" fill="#FAC39D"/>
<path d="M50.9946 14.6961C51.2136 15.1634 51.0092 15.7232 50.5419 15.9423C50.0746 16.1613 49.5148 15.9569 49.2957 15.4896C49.0767 15.0223 49.2811 14.4625 49.7484 14.2434C50.2157 14.0244 50.7755 14.2288 50.9946 14.6961Z" fill="#FAC39D"/>
<path d="M49.4123 11.3032C49.6314 11.7705 49.4269 12.3303 48.9596 12.5493C48.4923 12.7684 47.9325 12.5639 47.7135 12.0966C47.4944 11.6293 47.6989 11.0695 48.1662 10.8505C48.6335 10.6314 49.1933 10.8359 49.4123 11.3032Z" fill="#FAC39D"/>
<path d="M47.8254 7.90533C48.0445 8.37264 47.84 8.93242 47.3727 9.15147C46.9054 9.37052 46.3456 9.16607 46.1266 8.69877C45.9075 8.23147 46.112 7.67168 46.5793 7.45264C47.0514 7.23846 47.6064 7.43803 47.8254 7.90533Z" fill="#FAC39D"/>
<path d="M49.1255 23.9981C49.3835 24.4459 49.2326 25.0203 48.7847 25.2783C48.3369 25.5363 47.7625 25.3854 47.5045 24.9375C47.2465 24.4897 47.3974 23.9153 47.8453 23.6573C48.2931 23.3945 48.8675 23.5502 49.1255 23.9981Z" fill="#FAC39D"/>
<path d="M47.2512 20.756C47.5092 21.2039 47.3583 21.7783 46.9105 22.0363C46.4626 22.2943 45.8882 22.1434 45.6302 21.6955C45.3723 21.2477 45.5232 20.6733 45.971 20.4153C46.4237 20.1524 46.9932 20.3082 47.2512 20.756Z" fill="#FAC39D"/>
<path d="M45.3821 17.5091C45.64 17.9569 45.4892 18.5313 45.0413 18.7893C44.5935 19.0473 44.0191 18.8964 43.7611 18.4485C43.5031 18.0007 43.654 17.4263 44.1018 17.1683C44.5497 16.9103 45.1192 17.0612 45.3821 17.5091Z" fill="#FAC39D"/>
<path d="M43.508 14.267C43.766 14.7149 43.6151 15.2893 43.1673 15.5472C42.7195 15.8052 42.1451 15.6543 41.8871 15.2065C41.6291 14.7587 41.78 14.1843 42.2278 13.9263C42.6757 13.6634 43.25 13.8192 43.508 14.267Z" fill="#FAC39D"/>
<path d="M41.6338 11.0205C41.8918 11.4684 41.7409 12.0428 41.293 12.3008C40.8452 12.5587 40.2708 12.4078 40.0128 11.96C39.7548 11.5122 39.9057 10.9378 40.3536 10.6798C40.8014 10.4218 41.3758 10.5727 41.6338 11.0205Z" fill="#FAC39D"/>
<path d="M44.3304 26.9381C44.6274 27.3616 44.5252 27.9457 44.1017 28.2427C43.6782 28.5396 43.094 28.4374 42.7971 28.0139C42.5002 27.5904 42.6024 27.0063 43.0259 26.7093C43.4494 26.4124 44.0335 26.5146 44.3304 26.9381Z" fill="#FAC39D"/>
<path d="M42.1786 23.8713C42.4755 24.2948 42.3733 24.879 41.9498 25.1759C41.5263 25.4728 40.9422 25.3706 40.6453 24.9471C40.3483 24.5236 40.4505 23.9395 40.874 23.6426C41.2975 23.3408 41.8816 23.4478 42.1786 23.8713Z" fill="#FAC39D"/>
<path d="M40.0321 20.7998C40.329 21.2233 40.2268 21.8074 39.8033 22.1044C39.3798 22.4013 38.7957 22.2991 38.4988 21.8756C38.2018 21.4521 38.3041 20.868 38.7275 20.571C39.151 20.2741 39.7352 20.3763 40.0321 20.7998Z" fill="#FAC39D"/>
<path d="M37.8854 17.733C38.1823 18.1565 38.0801 18.7407 37.6566 19.0376C37.2331 19.3345 36.649 19.2323 36.352 18.8088C36.0551 18.3853 36.1573 17.8012 36.5808 17.5043C37.0043 17.2073 37.5884 17.3096 37.8854 17.733Z" fill="#FAC39D"/>
<path d="M35.7338 14.6615C36.0307 15.085 35.9285 15.6691 35.505 15.9661C35.0815 16.263 34.4974 16.1608 34.2004 15.7373C33.9035 15.3138 34.0057 14.7297 34.4292 14.4327C34.8527 14.1358 35.4368 14.238 35.7338 14.6615Z" fill="#FAC39D"/>
<path d="M39.8085 30.282C40.1395 30.6762 40.0908 31.2701 39.6916 31.6011C39.2973 31.9321 38.7035 31.8834 38.3725 31.4843C38.0415 31.09 38.0901 30.4961 38.4893 30.1651C38.8836 29.8341 39.4774 29.8877 39.8085 30.282Z" fill="#FAC39D"/>
<path d="M37.3988 27.4148C37.7298 27.8091 37.6811 28.403 37.282 28.734C36.8828 29.065 36.2938 29.0163 35.9628 28.6172C35.6318 28.2229 35.6805 27.629 36.0796 27.298C36.4788 26.967 37.0678 27.0205 37.3988 27.4148Z" fill="#FAC39D"/>
<path d="M34.9942 24.5428C35.3253 24.9371 35.2766 25.531 34.8774 25.862C34.4831 26.193 33.8893 26.1443 33.5583 25.7452C33.2273 25.3509 33.2759 24.757 33.6751 24.426C34.0694 24.095 34.6584 24.1485 34.9942 24.5428Z" fill="#FAC39D"/>
<path d="M32.5846 21.6759C32.9156 22.0702 32.8669 22.664 32.4677 22.995C32.0735 23.3261 31.4796 23.2774 31.1486 22.8782C30.8176 22.4839 30.8663 21.8901 31.2654 21.5591C31.6597 21.228 32.2536 21.2816 32.5846 21.6759Z" fill="#FAC39D"/>
<path d="M30.1754 18.8039C30.5064 19.1982 30.4577 19.792 30.0586 20.123C29.6643 20.454 29.0704 20.4054 28.7394 20.0062C28.4084 19.607 28.4571 19.018 28.8562 18.687C29.2554 18.356 29.8444 18.4096 30.1754 18.8039Z" fill="#FAC39D"/>
<path d="M35.5927 34.0109C35.9578 34.376 35.9578 34.9698 35.5927 35.3349C35.2276 35.7 34.6338 35.7 34.2687 35.3349C33.9036 34.9698 33.9036 34.376 34.2687 34.0109C34.6338 33.6458 35.2276 33.6458 35.5927 34.0109Z" fill="#FAC39D"/>
<path d="M32.9448 31.3629C33.3098 31.728 33.3098 32.3219 32.9448 32.6869C32.5797 33.052 31.9858 33.052 31.6207 32.6869C31.2557 32.3219 31.2557 31.728 31.6207 31.3629C31.9858 30.9978 32.5797 30.9978 32.9448 31.3629Z" fill="#FAC39D"/>
<path d="M30.2968 28.7147C30.6619 29.0797 30.6619 29.6736 30.2968 30.0387C29.9317 30.4038 29.3379 30.4038 28.9728 30.0387C28.6077 29.6736 28.6077 29.0797 28.9728 28.7147C29.3379 28.3496 29.9317 28.3496 30.2968 28.7147Z" fill="#FAC39D"/>
<path d="M27.6486 26.0668C28.0137 26.4319 28.0137 27.0258 27.6486 27.3909C27.2835 27.756 26.6897 27.756 26.3246 27.3909C25.9595 27.0258 25.9595 26.4319 26.3246 26.0668C26.6897 25.7018 27.2835 25.7018 27.6486 26.0668Z" fill="#FAC39D"/>
<path d="M25.0007 23.4186C25.3657 23.7837 25.3657 24.3776 25.0007 24.7427C24.6356 25.1078 24.0417 25.1078 23.6766 24.7427C23.3116 24.3776 23.3116 23.7837 23.6766 23.4186C24.0417 23.0536 24.6356 23.0536 25.0007 23.4186Z" fill="#FAC39D"/>
<path d="M31.7232 38.0951C32.1175 38.4261 32.1711 39.0199 31.8401 39.4142C31.5091 39.8085 30.9152 39.8621 30.5209 39.531C30.1266 39.2 30.0731 38.6062 30.4041 38.2119C30.7351 37.8127 31.329 37.7592 31.7232 38.0951Z" fill="#FAC39D"/>
<path d="M28.8561 35.6856C29.2503 36.0166 29.3039 36.6105 28.9729 37.0047C28.6419 37.399 28.048 37.4526 27.6537 37.1216C27.2594 36.7906 27.2059 36.1967 27.5369 35.8024C27.8679 35.4033 28.4569 35.3546 28.8561 35.6856Z" fill="#FAC39D"/>
<path d="M25.9842 33.276C26.3785 33.607 26.4321 34.2008 26.1011 34.5951C25.77 34.9894 25.1762 35.043 24.7819 34.712C24.3876 34.3809 24.3341 33.7871 24.6651 33.3928C24.9961 32.9985 25.5899 32.945 25.9842 33.276Z" fill="#FAC39D"/>
<path d="M23.1168 30.8714C23.5111 31.2024 23.5646 31.7963 23.2336 32.1906C22.9026 32.5849 22.3087 32.6384 21.9145 32.3074C21.5202 31.9764 21.4666 31.3825 21.7976 30.9883C22.1286 30.5891 22.7176 30.5356 23.1168 30.8714Z" fill="#FAC39D"/>
<path d="M20.245 28.4618C20.6393 28.7928 20.6928 29.3867 20.3618 29.781C20.0308 30.1753 19.4369 30.2288 19.0426 29.8978C18.6483 29.5668 18.5948 28.9729 18.9258 28.5787C19.2568 28.1795 19.8507 28.1308 20.245 28.4618Z" fill="#FAC39D"/>
<path d="M28.223 42.4952C28.6465 42.7922 28.7487 43.3763 28.4518 43.7998C28.1548 44.2233 27.5707 44.3255 27.1472 44.0286C26.7237 43.7316 26.6215 43.1475 26.9184 42.724C27.2154 42.3005 27.7995 42.1983 28.223 42.4952Z" fill="#FAC39D"/>
<path d="M25.1515 40.3488C25.575 40.6457 25.6772 41.2299 25.3803 41.6534C25.0833 42.0768 24.4992 42.1791 24.0757 41.8821C23.6522 41.5852 23.55 41.0011 23.8469 40.5776C24.1438 40.1541 24.728 40.0519 25.1515 40.3488Z" fill="#FAC39D"/>
<path d="M22.0846 38.1971C22.5081 38.4941 22.6103 39.0782 22.3134 39.5017C22.0164 39.9252 21.4323 40.0274 21.0088 39.7305C20.5853 39.4335 20.4831 38.8494 20.78 38.4259C21.077 38.0073 21.6611 37.9002 22.0846 38.1971Z" fill="#FAC39D"/>
<path d="M19.0179 36.0505C19.4414 36.3474 19.5436 36.9315 19.2467 37.355C18.9498 37.7785 18.3656 37.8807 17.9422 37.5838C17.5187 37.2869 17.4164 36.7027 17.7134 36.2792C18.0103 35.8558 18.5944 35.7535 19.0179 36.0505Z" fill="#FAC39D"/>
<path d="M15.9466 33.9037C16.3701 34.2007 16.4723 34.7848 16.1754 35.2083C15.8785 35.6318 15.2944 35.734 14.8709 35.4371C14.4474 35.1401 14.3451 34.556 14.6421 34.1325C14.939 33.709 15.5231 33.6068 15.9466 33.9037Z" fill="#FAC39D"/>
<path d="M25.1177 47.1881C25.5655 47.4461 25.7213 48.0205 25.4584 48.4683C25.2005 48.9161 24.6261 49.0719 24.1782 48.8091C23.7304 48.5511 23.5746 47.9767 23.8375 47.5288C24.0955 47.081 24.6699 46.9301 25.1177 47.1881Z" fill="#FAC39D"/>
<path d="M21.8755 45.314C22.3233 45.572 22.4791 46.1463 22.2162 46.5942C21.9583 47.042 21.3839 47.1978 20.936 46.9349C20.4882 46.6769 20.3324 46.1025 20.5953 45.6547C20.8533 45.2069 21.4228 45.056 21.8755 45.314Z" fill="#FAC39D"/>
<path d="M18.6289 43.44C19.0768 43.698 19.2325 44.2724 18.9697 44.7202C18.7117 45.168 18.1373 45.3238 17.6895 45.0609C17.2416 44.8029 17.0859 44.2285 17.3487 43.7807C17.6067 43.3377 18.1811 43.182 18.6289 43.44Z" fill="#FAC39D"/>
<path d="M15.387 41.5706C15.8348 41.8286 15.9906 42.403 15.7277 42.8508C15.4697 43.2986 14.8953 43.4544 14.4475 43.1915C13.9997 42.9336 13.8439 42.3592 14.1068 41.9113C14.3648 41.4635 14.9392 41.3077 15.387 41.5706Z" fill="#FAC39D"/>
<path d="M12.1402 39.6964C12.588 39.9544 12.7438 40.5288 12.4809 40.9766C12.2229 41.4245 11.6485 41.5802 11.2007 41.3174C10.7529 41.0594 10.5971 40.485 10.8599 40.0371C11.1179 39.5893 11.6923 39.4384 12.1402 39.6964Z" fill="#FAC39D"/>
<path d="M22.4354 52.1289C22.9027 52.348 23.1072 52.9029 22.8881 53.375C22.6691 53.8423 22.1142 54.0468 21.642 53.8277C21.1747 53.6087 20.9703 53.0538 21.1893 52.5816C21.4083 52.1143 21.9633 51.9147 22.4354 52.1289Z" fill="#FAC39D"/>
<path d="M19.0377 50.5468C19.505 50.7658 19.7095 51.3207 19.4904 51.7929C19.2714 52.2602 18.7165 52.4647 18.2443 52.2456C17.777 52.0266 17.5725 51.4717 17.7916 50.9995C18.0106 50.5322 18.5704 50.3277 19.0377 50.5468Z" fill="#FAC39D"/>
<path d="M15.6449 48.9648C16.1122 49.1838 16.3167 49.7387 16.0976 50.2109C15.8786 50.6782 15.3236 50.8826 14.8515 50.6636C14.3842 50.4445 14.1797 49.8896 14.3988 49.4175C14.6178 48.9502 15.1727 48.7457 15.6449 48.9648Z" fill="#FAC39D"/>
<path d="M12.2472 47.3828C12.7145 47.6018 12.919 48.1567 12.6999 48.6289C12.4809 49.0962 11.9259 49.3007 11.4538 49.0816C10.9865 48.8626 10.782 48.3077 11.0011 47.8355C11.225 47.3682 11.7799 47.1637 12.2472 47.3828Z" fill="#FAC39D"/>
<path d="M8.85439 45.8006C9.32169 46.0197 9.52613 46.5746 9.30708 47.0468C9.08804 47.5141 8.53311 47.7185 8.06094 47.4995C7.59364 47.2804 7.3892 46.7255 7.60824 46.2533C7.82729 45.7812 8.38708 45.5816 8.85439 45.8006Z" fill="#FAC39D"/>
<path d="M20.1913 57.2886C20.6781 57.4639 20.9264 58.0042 20.7511 58.491C20.5759 58.9777 20.0356 59.226 19.5488 59.0507C19.062 58.8755 18.8138 58.3352 18.989 57.8484C19.1691 57.3616 19.7046 57.1134 20.1913 57.2886Z" fill="#FAC39D"/>
<path d="M16.6723 56.0082C17.1591 56.1835 17.4073 56.7238 17.2321 57.2106C17.0568 57.6974 16.5165 57.9456 16.0298 57.7704C15.543 57.5951 15.2947 57.0548 15.47 56.568C15.6501 56.0812 16.1855 55.833 16.6723 56.0082Z" fill="#FAC39D"/>
<path d="M13.1528 54.7282C13.6395 54.9034 13.8878 55.4438 13.7126 55.9305C13.5373 56.4173 12.997 56.6656 12.5102 56.4903C12.0234 56.3151 11.7752 55.7748 11.9504 55.288C12.1257 54.8012 12.666 54.553 13.1528 54.7282Z" fill="#FAC39D"/>
<path d="M9.62859 53.4477C10.1154 53.623 10.3636 54.1633 10.1884 54.6501C10.0131 55.1368 9.47282 55.3851 8.98605 55.2099C8.49928 55.0346 8.25102 54.4943 8.42626 54.0075C8.60637 53.5208 9.14669 53.2676 9.62859 53.4477Z" fill="#FAC39D"/>
<path d="M6.10906 52.1677C6.59583 52.343 6.84409 52.8833 6.66885 53.3701C6.49361 53.8568 5.95329 54.1051 5.46652 53.9298C4.97974 53.7546 4.73149 53.2143 4.90673 52.7275C5.08684 52.2407 5.62715 51.9876 6.10906 52.1677Z" fill="#FAC39D"/>
<path d="M18.4048 62.6237C18.9062 62.7551 19.2031 63.2711 19.0668 63.7724C18.9305 64.2738 18.4194 64.5707 17.918 64.4345C17.4166 64.303 17.1197 63.787 17.256 63.2857C17.3923 62.7892 17.9083 62.4922 18.4048 62.6237Z" fill="#FAC39D"/>
<path d="M14.7883 61.655C15.2897 61.7864 15.5867 62.3024 15.4504 62.8038C15.3189 63.3051 14.8029 63.6021 14.3016 63.4658C13.8002 63.3295 13.5033 62.8184 13.6396 62.317C13.7759 61.8205 14.287 61.5235 14.7883 61.655Z" fill="#FAC39D"/>
<path d="M11.1714 60.6861C11.6728 60.8224 11.9697 61.3335 11.8334 61.8349C11.702 62.3363 11.186 62.6332 10.6846 62.4969C10.1832 62.3655 9.88632 61.8495 10.0226 61.3481C10.1589 60.8468 10.67 60.5498 11.1714 60.6861Z" fill="#FAC39D"/>
<path d="M7.54957 59.7176C8.05095 59.8539 8.34788 60.365 8.21158 60.8664C8.07529 61.3678 7.56418 61.6647 7.0628 61.5284C6.56142 61.397 6.26449 60.881 6.40079 60.3796C6.53708 59.8783 7.05306 59.5813 7.54957 59.7176Z" fill="#FAC39D"/>
<path d="M3.93312 58.7487C4.43449 58.8801 4.73142 59.3961 4.59513 59.8975C4.45883 60.3989 3.94772 60.6958 3.44634 60.5595C2.94497 60.4281 2.64804 59.9121 2.78433 59.4107C2.92063 58.9093 3.43174 58.6124 3.93312 58.7487Z" fill="#FAC39D"/>
<path d="M17.0958 68.0946C17.6069 68.1822 17.9476 68.669 17.8551 69.1801C17.7626 69.6912 17.2807 70.0271 16.7696 69.9394C16.2585 69.8518 15.9178 69.365 16.0103 68.8539C16.0979 68.3428 16.5847 68.007 17.0958 68.0946Z" fill="#FAC39D"/>
<path d="M13.406 67.4423C13.9171 67.5299 14.253 68.0167 14.1654 68.5278C14.0778 69.0389 13.591 69.3796 13.0799 69.2872C12.5688 69.1995 12.2329 68.7128 12.3205 68.2017C12.4081 67.6905 12.8949 67.3547 13.406 67.4423Z" fill="#FAC39D"/>
<path d="M9.71638 66.7952C10.2275 66.8829 10.5682 67.3696 10.4757 67.8807C10.3833 68.3919 9.90135 68.7277 9.39024 68.6401C8.87912 68.5525 8.53838 68.0657 8.63087 67.5546C8.72335 67.0435 9.20526 66.7027 9.71638 66.7952Z" fill="#FAC39D"/>
<path d="M6.02639 66.1428C6.53751 66.2304 6.87825 66.7172 6.78576 67.2283C6.69814 67.7394 6.21137 68.0753 5.70025 67.9877C5.18914 67.9001 4.85327 67.4133 4.94089 66.9022C5.03337 66.3959 5.51528 66.0552 6.02639 66.1428Z" fill="#FAC39D"/>
<path d="M2.33673 65.4906C2.84784 65.5782 3.18372 66.065 3.0961 66.5761C3.00848 67.0872 2.52171 67.4231 2.01059 67.3355C1.49948 67.2479 1.15874 66.7611 1.25123 66.25C1.34372 65.7437 1.83049 65.403 2.33673 65.4906Z" fill="#FAC39D"/>
<path d="M16.263 73.659C16.779 73.7028 17.1587 74.1604 17.1149 74.6715C17.071 75.1874 16.6135 75.5671 16.1024 75.5233C15.5864 75.4795 15.2067 75.0219 15.2505 74.5108C15.2943 73.9997 15.747 73.6152 16.263 73.659Z" fill="#FAC39D"/>
<path d="M12.5294 73.3327C13.0453 73.3765 13.425 73.8341 13.3812 74.3452C13.3374 74.8612 12.8798 75.2408 12.3687 75.197C11.8527 75.1532 11.4731 74.6956 11.5169 74.1845C11.5607 73.6685 12.0134 73.2889 12.5294 73.3327Z" fill="#FAC39D"/>
<path d="M8.80084 73.0063C9.31682 73.0501 9.69651 73.5077 9.6527 74.0188C9.60889 74.5348 9.15132 74.9145 8.64021 74.8707C8.12423 74.8268 7.74454 74.3693 7.78835 73.8582C7.83216 73.3422 8.28486 72.9625 8.80084 73.0063Z" fill="#FAC39D"/>
<path d="M5.0672 72.6803C5.58318 72.7241 5.96286 73.1816 5.91905 73.6927C5.87524 74.2087 5.41768 74.5884 4.90656 74.5446C4.39058 74.5008 4.0109 74.0432 4.05471 73.5321C4.09852 73.0161 4.55122 72.6364 5.0672 72.6803Z" fill="#FAC39D"/>
<path d="M1.33356 72.3541C1.84954 72.3979 2.22922 72.8555 2.18541 73.3666C2.1416 73.8825 1.68404 74.2622 1.17292 74.2184C0.656941 74.1746 0.277257 73.717 0.321067 73.2059C0.364877 72.6899 0.822445 72.3054 1.33356 72.3541Z" fill="#FAC39D"/>
<path d="M15.9222 79.2712C16.4382 79.2712 16.8568 79.6899 16.8568 80.2058C16.8568 80.7218 16.4382 81.1404 15.9222 81.1404C15.4062 81.1404 14.9876 80.7218 14.9876 80.2058C14.9827 79.6947 15.4013 79.2712 15.9222 79.2712Z" fill="#FAC39D"/>
<path d="M12.1744 79.2712C12.6903 79.2712 13.109 79.6899 13.109 80.2058C13.109 80.7218 12.6903 81.1404 12.1744 81.1404C11.6584 81.1404 11.2397 80.7218 11.2397 80.2058C11.2397 79.6947 11.6584 79.2712 12.1744 79.2712Z" fill="#FAC39D"/>
<path d="M8.42606 79.2712C8.94204 79.2712 9.36066 79.6899 9.36066 80.2058C9.36066 80.7218 8.94204 81.1404 8.42606 81.1404C7.91008 81.1404 7.49146 80.7218 7.49146 80.2058C7.49146 79.6947 7.91008 79.2712 8.42606 79.2712Z" fill="#FAC39D"/>
<path d="M4.68269 79.2712C5.19867 79.2712 5.6173 79.6899 5.6173 80.2058C5.6173 80.7218 5.19867 81.1404 4.68269 81.1404C4.16671 81.1404 3.74809 80.7218 3.74809 80.2058C3.74322 79.6947 4.16671 79.2712 4.68269 79.2712Z" fill="#FAC39D"/>
<path d="M0.934606 79.2723C1.45059 79.2723 1.86921 79.6909 1.86921 80.2069C1.86921 80.7229 1.45059 81.1415 0.934606 81.1415C0.418625 81.1415 0 80.7229 0 80.2069C0 79.6958 0.418625 79.2723 0.934606 79.2723Z" fill="#FAC39D"/>
<path d="M16.0684 84.8981C16.5844 84.8543 17.0371 85.234 17.0809 85.7499C17.1247 86.2659 16.745 86.7186 16.2291 86.7624C15.7131 86.8062 15.2604 86.4266 15.2166 85.9106C15.1728 85.3946 15.5524 84.9419 16.0684 84.8981Z" fill="#FAC39D"/>
<path d="M12.335 85.2241C12.851 85.1803 13.3037 85.56 13.3475 86.0759C13.3913 86.5919 13.0116 87.0446 12.4957 87.0884C11.9797 87.1322 11.527 86.7526 11.4832 86.2366C11.4394 85.7206 11.819 85.2679 12.335 85.2241Z" fill="#FAC39D"/>
<path d="M8.60626 85.5504C9.12224 85.5066 9.57494 85.8863 9.61875 86.4022C9.66256 86.9182 9.28287 87.3709 8.76689 87.4147C8.25091 87.4585 7.79821 87.0788 7.7544 86.5629C7.70572 86.0469 8.09028 85.5942 8.60626 85.5504Z" fill="#FAC39D"/>
<path d="M4.87263 85.8765C5.38861 85.8327 5.84131 86.2124 5.88512 86.7283C5.92893 87.2443 5.54925 87.697 5.03326 87.7408C4.51728 87.7846 4.06458 87.405 4.02077 86.889C3.97696 86.3779 4.35665 85.9203 4.87263 85.8765Z" fill="#FAC39D"/>
<path d="M1.13895 86.2027C1.65493 86.1588 2.10763 86.5385 2.15144 87.0545C2.19525 87.5705 1.81556 88.0232 1.29958 88.067C0.783603 88.1108 0.330903 87.7311 0.287093 87.2152C0.243284 86.704 0.627835 86.2465 1.13895 86.2027Z" fill="#FAC39D"/>
<path d="M16.7062 90.4863C17.2173 90.3987 17.6992 90.7346 17.7917 91.2457C17.8793 91.7568 17.5434 92.2387 17.0323 92.3312C16.5212 92.4237 16.0393 92.0829 15.9468 91.5718C15.8543 91.0607 16.195 90.5739 16.7062 90.4863Z" fill="#FAC39D"/>
<path d="M13.0165 91.1386C13.5276 91.051 14.0095 91.3868 14.102 91.8979C14.1896 92.4091 13.8537 92.891 13.3426 92.9834C12.8315 93.0711 12.3496 92.7352 12.2571 92.2241C12.1646 91.713 12.5053 91.2262 13.0165 91.1386Z" fill="#FAC39D"/>
<path d="M9.32647 91.786C9.83759 91.6984 10.3195 92.0343 10.412 92.5454C10.4996 93.0565 10.1637 93.5384 9.65261 93.6309C9.1415 93.7185 8.65959 93.3827 8.56711 92.8715C8.47949 92.3604 8.81536 91.8785 9.32647 91.786Z" fill="#FAC39D"/>
<path d="M5.63688 92.4383C6.14799 92.3507 6.6299 92.6866 6.72238 93.1977C6.81 93.7088 6.47413 94.1907 5.96302 94.2832C5.4519 94.3708 4.96999 94.035 4.87751 93.5238C4.78989 93.0127 5.13063 92.5259 5.63688 92.4383Z" fill="#FAC39D"/>
<path d="M1.94718 93.0855C2.45829 92.9979 2.9402 93.3338 3.03268 93.8449C3.1203 94.356 2.78443 94.8379 2.27331 94.9304C1.7622 95.018 1.2803 94.6822 1.18781 94.171C1.10019 93.6648 1.44093 93.178 1.94718 93.0855Z" fill="#FAC39D"/>
<path d="M17.8257 95.9967C18.3271 95.8652 18.8382 96.1573 18.9745 96.6587C19.1059 97.1601 18.8139 97.6712 18.3125 97.8075C17.8111 97.9438 17.3 97.6468 17.1637 97.1455C17.0323 96.6441 17.3292 96.1329 17.8257 95.9967Z" fill="#FAC39D"/>
<path d="M14.209 96.9702C14.7104 96.8388 15.2215 97.1309 15.3578 97.6323C15.4941 98.1336 15.1972 98.6448 14.6958 98.781C14.1944 98.9125 13.6833 98.6204 13.547 98.119C13.4107 97.6177 13.7077 97.1017 14.209 96.9702Z" fill="#FAC39D"/>
<path d="M10.5921 97.9391C11.0935 97.8077 11.6046 98.0997 11.7409 98.6011C11.8772 99.1025 11.5802 99.6136 11.0789 99.7499C10.5775 99.8813 10.0664 99.5892 9.93008 99.0879C9.79379 98.5865 10.0907 98.0705 10.5921 97.9391Z" fill="#FAC39D"/>
<path d="M7.2139 100.747C7.73007 100.747 8.1485 100.329 8.1485 99.8128C8.1485 99.2967 7.73007 98.8782 7.2139 98.8782C6.69773 98.8782 6.2793 99.2967 6.2793 99.8128C6.2793 100.329 6.69773 100.747 7.2139 100.747Z" fill="#FAC39D"/>
<path d="M3.35382 99.8763C3.85519 99.7449 4.36631 100.037 4.5026 100.538C4.6389 101.04 4.34197 101.551 3.84059 101.687C3.33921 101.819 2.8281 101.526 2.6918 101.025C2.55551 100.524 2.85244 100.013 3.35382 99.8763Z" fill="#FAC39D"/>
<path d="M19.4275 101.39C19.9142 101.215 20.4497 101.463 20.6298 101.95C20.805 102.437 20.5568 102.972 20.07 103.152C19.5832 103.327 19.0478 103.079 18.8677 102.592C18.6876 102.106 18.9407 101.57 19.4275 101.39Z" fill="#FAC39D"/>
<path d="M15.903 102.675C16.3898 102.5 16.9252 102.748 17.1053 103.235C17.2806 103.722 17.0323 104.257 16.5455 104.437C16.0588 104.613 15.5233 104.364 15.3432 103.878C15.168 103.386 15.4211 102.85 15.903 102.675Z" fill="#FAC39D"/>
<path d="M12.384 103.955C12.8707 103.78 13.4062 104.028 13.5863 104.515C13.7615 105.002 13.5133 105.537 13.0265 105.718C12.5397 105.893 12.0043 105.645 11.8242 105.158C11.6489 104.671 11.9021 104.131 12.384 103.955Z" fill="#FAC39D"/>
<path d="M8.86447 105.236C9.35125 105.06 9.8867 105.309 10.0668 105.795C10.242 106.282 9.99379 106.818 9.50701 106.998C9.02024 107.173 8.48479 106.925 8.30468 106.438C8.12944 105.951 8.3777 105.411 8.86447 105.236Z" fill="#FAC39D"/>
<path d="M5.34494 106.516C5.83171 106.341 6.36716 106.589 6.54727 107.076C6.72251 107.562 6.47425 108.098 5.98748 108.278C5.5007 108.453 4.96526 108.205 4.78515 107.718C4.60991 107.231 4.85816 106.696 5.34494 106.516Z" fill="#FAC39D"/>
<path d="M21.486 106.628C21.9533 106.409 22.5131 106.613 22.7321 107.08C22.9512 107.548 22.7467 108.107 22.2794 108.327C21.8121 108.546 21.2523 108.341 21.0333 107.874C20.8142 107.402 21.0187 106.842 21.486 106.628Z" fill="#FAC39D"/>
<path d="M18.0937 108.21C18.561 107.991 19.1207 108.195 19.3398 108.662C19.5588 109.13 19.3544 109.69 18.8871 109.909C18.4198 110.128 17.86 109.923 17.641 109.456C17.4219 108.984 17.6264 108.429 18.0937 108.21Z" fill="#FAC39D"/>
<path d="M14.6957 109.792C15.163 109.573 15.7228 109.777 15.9419 110.245C16.1609 110.712 15.9565 111.272 15.4892 111.491C15.0218 111.71 14.4621 111.505 14.243 111.038C14.024 110.566 14.2284 110.011 14.6957 109.792Z" fill="#FAC39D"/>
<path d="M11.3029 111.374C11.7702 111.155 12.33 111.359 12.549 111.826C12.7681 112.294 12.5636 112.853 12.0963 113.073C11.629 113.292 11.0692 113.087 10.8502 112.62C10.6311 112.153 10.8356 111.593 11.3029 111.374Z" fill="#FAC39D"/>
<path d="M7.90527 112.956C8.37258 112.737 8.93237 112.941 9.15141 113.409C9.37046 113.876 9.16602 114.436 8.69871 114.655C8.23141 114.874 7.67162 114.669 7.45257 114.202C7.23839 113.735 7.43797 113.175 7.90527 112.956Z" fill="#FAC39D"/>
<path d="M23.9981 111.661C24.4459 111.403 25.0203 111.554 25.2783 112.002C25.5363 112.45 25.3854 113.024 24.9375 113.282C24.4897 113.54 23.9153 113.389 23.6573 112.941C23.3945 112.493 23.5502 111.919 23.9981 111.661Z" fill="#FAC39D"/>
<path d="M20.7564 113.535C21.2042 113.277 21.7786 113.428 22.0366 113.876C22.2946 114.324 22.1437 114.898 21.6958 115.156C21.248 115.414 20.6736 115.263 20.4156 114.815C20.1528 114.363 20.3085 113.793 20.7564 113.535Z" fill="#FAC39D"/>
<path d="M17.5096 115.404C17.9574 115.146 18.5318 115.297 18.7898 115.745C19.0478 116.193 18.8969 116.767 18.449 117.025C18.0012 117.283 17.4268 117.132 17.1688 116.685C16.9108 116.237 17.0617 115.662 17.5096 115.404Z" fill="#FAC39D"/>
<path d="M14.2676 117.279C14.7154 117.021 15.2898 117.171 15.5478 117.619C15.8058 118.067 15.6549 118.642 15.2071 118.9C14.7592 119.158 14.1848 119.007 13.9268 118.559C13.664 118.111 13.8197 117.537 14.2676 117.279Z" fill="#FAC39D"/>
<path d="M11.0208 119.152C11.4686 118.894 12.043 119.045 12.301 119.493C12.559 119.941 12.4081 120.515 11.9603 120.773C11.5124 121.031 10.938 120.88 10.68 120.433C10.4221 119.985 10.573 119.41 11.0208 119.152Z" fill="#FAC39D"/>
<path d="M26.938 116.456C27.3615 116.159 27.9456 116.261 28.2426 116.684C28.5395 117.108 28.4373 117.692 28.0138 117.989C27.5903 118.286 27.0061 118.184 26.7092 117.76C26.4123 117.337 26.5145 116.753 26.938 116.456Z" fill="#FAC39D"/>
<path d="M23.8713 118.602C24.2948 118.305 24.8789 118.408 25.1758 118.831C25.4728 119.255 25.3705 119.839 24.9471 120.136C24.5236 120.433 23.9394 120.33 23.6425 119.907C23.3407 119.483 23.4478 118.899 23.8713 118.602Z" fill="#FAC39D"/>
<path d="M20.7998 120.754C21.2233 120.457 21.8074 120.559 22.1044 120.983C22.4013 121.406 22.2991 121.99 21.8756 122.287C21.4521 122.584 20.868 122.482 20.571 122.058C20.2741 121.635 20.3763 121.051 20.7998 120.754Z" fill="#FAC39D"/>
<path d="M17.7329 122.901C18.1564 122.604 18.7405 122.706 19.0375 123.129C19.3344 123.553 19.2322 124.137 18.8087 124.434C18.3852 124.731 17.8011 124.629 17.5041 124.205C17.2072 123.782 17.3094 123.197 17.7329 122.901Z" fill="#FAC39D"/>
<path d="M14.6614 125.052C15.0849 124.755 15.669 124.857 15.9659 125.281C16.2629 125.704 16.1607 126.289 15.7372 126.586C15.3137 126.882 14.7295 126.78 14.4326 126.357C14.1357 125.928 14.2379 125.349 14.6614 125.052Z" fill="#FAC39D"/>
<path d="M30.2821 120.978C30.6764 120.647 31.2703 120.695 31.6013 121.095C31.9323 121.489 31.8836 122.083 31.4845 122.414C31.0902 122.745 30.4963 122.696 30.1653 122.297C29.8343 121.903 29.8878 121.309 30.2821 120.978Z" fill="#FAC39D"/>
<path d="M27.4152 123.387C27.8095 123.056 28.4033 123.105 28.7344 123.504C29.0654 123.898 29.0167 124.492 28.6175 124.823C28.2232 125.154 27.6294 125.105 27.2984 124.706C26.9674 124.307 27.0209 123.718 27.4152 123.387Z" fill="#FAC39D"/>
<path d="M24.5434 125.792C24.9377 125.461 25.5315 125.51 25.8625 125.909C26.1935 126.303 26.1449 126.897 25.7457 127.228C25.3514 127.559 24.7575 127.51 24.4265 127.111C24.0955 126.717 24.1491 126.128 24.5434 125.792Z" fill="#FAC39D"/>
<path d="M21.6762 128.201C22.0705 127.87 22.6643 127.919 22.9953 128.318C23.3263 128.713 23.2777 129.306 22.8785 129.637C22.4842 129.968 21.8904 129.92 21.5594 129.521C21.2283 129.126 21.2819 128.532 21.6762 128.201Z" fill="#FAC39D"/>
<path d="M18.8041 130.611C19.1984 130.28 19.7923 130.329 20.1233 130.728C20.4543 131.122 20.4056 131.716 20.0064 132.047C19.6122 132.378 19.0183 132.33 18.6873 131.93C18.3563 131.531 18.4098 130.942 18.8041 130.611Z" fill="#FAC39D"/>
<path d="M34.0109 125.189C34.376 124.824 34.9698 124.824 35.3349 125.189C35.7 125.554 35.7 126.148 35.3349 126.513C34.9698 126.878 34.376 126.878 34.0109 126.513C33.6458 126.148 33.6458 125.559 34.0109 125.189Z" fill="#FAC39D"/>
<path d="M31.3629 127.842C31.728 127.477 32.3219 127.477 32.6869 127.842C33.052 128.207 33.052 128.801 32.6869 129.166C32.3219 129.531 31.728 129.531 31.3629 129.166C30.9978 128.801 30.9978 128.207 31.3629 127.842Z" fill="#FAC39D"/>
<path d="M28.715 130.49C29.0801 130.124 29.6739 130.124 30.039 130.49C30.4041 130.855 30.4041 131.449 30.039 131.814C29.6739 132.179 29.0801 132.179 28.715 131.814C28.3499 131.449 28.3499 130.855 28.715 130.49Z" fill="#FAC39D"/>
<path d="M26.0668 133.138C26.4319 132.773 27.0257 132.773 27.3908 133.138C27.7559 133.503 27.7559 134.097 27.3908 134.462C27.0257 134.827 26.4319 134.827 26.0668 134.462C25.7017 134.097 25.7017 133.503 26.0668 133.138Z" fill="#FAC39D"/>
<path d="M23.4188 135.786C23.7839 135.421 24.3778 135.421 24.7429 135.786C25.1079 136.151 25.1079 136.745 24.7429 137.11C24.3778 137.475 23.7839 137.475 23.4188 137.11C23.0537 136.745 23.0537 136.151 23.4188 135.786Z" fill="#FAC39D"/>
<path d="M38.0952 129.063C38.4262 128.669 39.0201 128.615 39.4143 128.946C39.8086 129.277 39.8622 129.871 39.5312 130.266C39.2002 130.66 38.6063 130.713 38.212 130.382C37.8129 130.051 37.7593 129.458 38.0952 129.063Z" fill="#FAC39D"/>
<path d="M35.6857 131.93C36.0167 131.536 36.6106 131.482 37.0049 131.813C37.3991 132.144 37.4527 132.738 37.1217 133.133C36.7907 133.527 36.1968 133.58 35.8025 133.249C35.4034 132.918 35.3547 132.329 35.6857 131.93Z" fill="#FAC39D"/>
<path d="M33.2762 134.802C33.6072 134.408 34.201 134.354 34.5953 134.685C34.9896 135.016 35.0431 135.61 34.7121 136.004C34.3811 136.399 33.7873 136.452 33.393 136.121C32.9987 135.79 32.9451 135.196 33.2762 134.802Z" fill="#FAC39D"/>
<path d="M30.8713 137.669C31.2023 137.275 31.7962 137.222 32.1905 137.553C32.5848 137.884 32.6383 138.477 32.3073 138.872C31.9763 139.266 31.3824 139.32 30.9881 138.989C30.589 138.658 30.5354 138.069 30.8713 137.669Z" fill="#FAC39D"/>
<path d="M28.4618 140.541C28.7928 140.147 29.3867 140.093 29.781 140.424C30.1753 140.755 30.2288 141.349 29.8978 141.744C29.5668 142.138 28.9729 142.191 28.5787 141.86C28.1795 141.529 28.1308 140.936 28.4618 140.541Z" fill="#FAC39D"/>
<path d="M42.4953 132.563C42.7923 132.14 43.3764 132.037 43.7999 132.334C44.2234 132.631 44.3256 133.215 44.0287 133.639C43.7317 134.062 43.1476 134.165 42.7241 133.868C42.3006 133.571 42.1984 132.987 42.4953 132.563Z" fill="#FAC39D"/>
<path d="M40.3489 135.63C40.6458 135.206 41.2299 135.104 41.6534 135.401C42.0769 135.698 42.1791 136.282 41.8822 136.706C41.5853 137.129 41.0011 137.231 40.5776 136.934C40.1542 136.637 40.0519 136.058 40.3489 135.63Z" fill="#FAC39D"/>
<path d="M38.1971 138.701C38.4941 138.278 39.0782 138.176 39.5017 138.472C39.9252 138.769 40.0274 139.354 39.7305 139.777C39.4335 140.201 38.8494 140.303 38.4259 140.006C38.0073 139.709 37.9002 139.125 38.1971 138.701Z" fill="#FAC39D"/>
<path d="M36.0505 141.768C36.3475 141.345 36.9316 141.243 37.3551 141.539C37.7786 141.836 37.8808 142.421 37.5839 142.844C37.2869 143.268 36.7028 143.37 36.2793 143.073C35.8558 142.776 35.7536 142.192 36.0505 141.768Z" fill="#FAC39D"/>
<path d="M33.9038 144.84C34.2007 144.416 34.7849 144.314 35.2083 144.611C35.6318 144.908 35.7341 145.492 35.4371 145.915C35.1402 146.339 34.5561 146.441 34.1326 146.144C33.7091 145.847 33.6069 145.263 33.9038 144.84Z" fill="#FAC39D"/>
<path d="M47.1879 135.669C47.4459 135.221 48.0202 135.065 48.4681 135.328C48.9159 135.586 49.0717 136.16 48.8088 136.608C48.5508 137.056 47.9764 137.212 47.5286 136.949C47.0808 136.691 46.9299 136.117 47.1879 135.669Z" fill="#FAC39D"/>
<path d="M45.3138 138.911C45.5718 138.463 46.1462 138.307 46.5941 138.57C47.0419 138.828 47.1977 139.402 46.9348 139.85C46.6768 140.298 46.1024 140.454 45.6546 140.191C45.2067 139.933 45.0558 139.359 45.3138 138.911Z" fill="#FAC39D"/>
<path d="M43.4397 142.157C43.6977 141.71 44.2721 141.554 44.7199 141.817C45.1678 142.075 45.3235 142.649 45.0607 143.097C44.8027 143.545 44.2283 143.701 43.7805 143.438C43.3375 143.175 43.1817 142.605 43.4397 142.157Z" fill="#FAC39D"/>
<path d="M41.5704 145.399C41.8284 144.952 42.4028 144.796 42.8506 145.059C43.2984 145.317 43.4542 145.891 43.1914 146.339C42.9334 146.787 42.359 146.942 41.9111 146.68C41.4633 146.422 41.3075 145.847 41.5704 145.399Z" fill="#FAC39D"/>
<path d="M39.6964 148.646C39.9544 148.199 40.5288 148.043 40.9766 148.306C41.4244 148.564 41.5802 149.138 41.3174 149.586C41.0594 150.034 40.485 150.189 40.0371 149.927C39.5893 149.664 39.4384 149.094 39.6964 148.646Z" fill="#FAC39D"/>
<path d="M52.1286 138.351C52.3476 137.884 52.9026 137.679 53.3747 137.898C53.842 138.117 54.0465 138.672 53.8274 139.144C53.6084 139.612 53.0535 139.816 52.5813 139.597C52.114 139.378 51.9144 138.818 52.1286 138.351Z" fill="#FAC39D"/>
<path d="M50.5465 141.748C50.7655 141.281 51.3204 141.077 51.7926 141.296C52.2599 141.515 52.4644 142.07 52.2453 142.542C52.0263 143.009 51.4713 143.214 50.9992 142.995C50.5319 142.771 50.3274 142.216 50.5465 141.748Z" fill="#FAC39D"/>
<path d="M48.9644 145.141C49.1835 144.674 49.7384 144.47 50.2106 144.689C50.6779 144.908 50.8823 145.463 50.6633 145.935C50.4442 146.402 49.8893 146.607 49.4171 146.388C48.9498 146.168 48.7454 145.609 48.9644 145.141Z" fill="#FAC39D"/>
<path d="M47.3824 148.539C47.6015 148.072 48.1564 147.867 48.6286 148.087C49.0959 148.306 49.3003 148.86 49.0813 149.333C48.8622 149.8 48.3073 150.004 47.8351 149.785C47.3678 149.561 47.1634 149.007 47.3824 148.539Z" fill="#FAC39D"/>
<path d="M45.8004 151.932C46.0195 151.465 46.5744 151.26 47.0466 151.479C47.5139 151.698 47.7183 152.253 47.4993 152.725C47.2802 153.193 46.7253 153.397 46.2531 153.178C45.781 152.959 45.5814 152.399 45.8004 151.932Z" fill="#FAC39D"/>
<path d="M57.2883 140.595C57.4636 140.108 58.0039 139.86 58.4907 140.035C58.9774 140.21 59.2257 140.75 59.0505 141.237C58.8752 141.724 58.3349 141.972 57.8481 141.797C57.3613 141.617 57.1131 141.081 57.2883 140.595Z" fill="#FAC39D"/>
<path d="M56.0083 144.114C56.1835 143.627 56.7239 143.379 57.2106 143.554C57.6974 143.729 57.9457 144.27 57.7704 144.756C57.5952 145.243 57.0549 145.491 56.5681 145.316C56.0813 145.136 55.8331 144.601 56.0083 144.114Z" fill="#FAC39D"/>
<path d="M54.7278 147.633C54.903 147.147 55.4433 146.898 55.9301 147.073C56.4169 147.249 56.6651 147.789 56.4899 148.276C56.3147 148.763 55.7743 149.011 55.2876 148.836C54.8008 148.656 54.5525 148.12 54.7278 147.633Z" fill="#FAC39D"/>
<path d="M53.4477 151.153C53.623 150.666 54.1633 150.418 54.6501 150.593C55.1369 150.768 55.3851 151.309 55.2099 151.795C55.0346 152.282 54.4943 152.53 54.0075 152.355C53.5208 152.18 53.2676 151.64 53.4477 151.153Z" fill="#FAC39D"/>
<path d="M52.1675 154.672C52.3427 154.185 52.883 153.937 53.3698 154.112C53.8566 154.287 54.1048 154.828 53.9296 155.315C53.7544 155.801 53.214 156.05 52.7273 155.874C52.2405 155.699 51.9874 155.159 52.1675 154.672Z" fill="#FAC39D"/>
<path d="M62.6237 142.376C62.76 141.875 63.2711 141.578 63.7724 141.714C64.2738 141.846 64.5708 142.362 64.4345 142.863C64.303 143.364 63.787 143.661 63.2857 143.525C62.7892 143.394 62.4922 142.878 62.6237 142.376Z" fill="#FAC39D"/>
<path d="M61.6551 145.998C61.7866 145.496 62.3026 145.199 62.8039 145.336C63.3053 145.467 63.6022 145.983 63.4659 146.484C63.3345 146.986 62.8185 147.283 62.3172 147.147C61.8207 147.01 61.5237 146.494 61.6551 145.998Z" fill="#FAC39D"/>
<path d="M60.6862 149.615C60.8176 149.113 61.3336 148.816 61.835 148.953C62.3363 149.084 62.6333 149.6 62.497 150.101C62.3607 150.603 61.8496 150.9 61.3482 150.763C60.8468 150.627 60.5499 150.116 60.6862 149.615Z" fill="#FAC39D"/>
<path d="M59.7174 153.231C59.8489 152.73 60.3648 152.433 60.8662 152.569C61.3676 152.701 61.6645 153.217 61.5282 153.718C61.3919 154.219 60.8808 154.516 60.3795 154.38C59.8781 154.249 59.5811 153.733 59.7174 153.231Z" fill="#FAC39D"/>
<path d="M58.7489 156.853C58.8804 156.351 59.3963 156.055 59.8977 156.191C60.3991 156.322 60.696 156.838 60.5597 157.34C60.4234 157.841 59.9123 158.138 59.4109 158.002C58.9096 157.865 58.6126 157.349 58.7489 156.853Z" fill="#FAC39D"/>
<path d="M68.0949 143.691C68.1826 143.18 68.6693 142.839 69.1804 142.932C69.6916 143.024 70.0274 143.506 69.9398 144.017C69.8522 144.528 69.3654 144.869 68.8543 144.776C68.3432 144.689 68.0073 144.202 68.0949 143.691Z" fill="#FAC39D"/>
<path d="M67.4428 147.381C67.5305 146.869 68.0172 146.534 68.5283 146.621C69.0395 146.709 69.3753 147.196 69.2877 147.707C69.2001 148.218 68.7133 148.559 68.2022 148.466C67.6911 148.374 67.3552 147.892 67.4428 147.381Z" fill="#FAC39D"/>
<path d="M66.7954 151.071C66.883 150.559 67.3698 150.219 67.8809 150.311C68.392 150.399 68.7279 150.886 68.6403 151.397C68.5527 151.908 68.0659 152.249 67.5548 152.156C67.0437 152.064 66.7029 151.582 66.7954 151.071Z" fill="#FAC39D"/>
<path d="M66.1429 154.76C66.2305 154.249 66.7173 153.908 67.2284 154.001C67.7395 154.089 68.0803 154.575 67.9878 155.086C67.9001 155.598 67.4134 155.933 66.9023 155.846C66.396 155.753 66.0553 155.267 66.1429 154.76Z" fill="#FAC39D"/>
<path d="M65.4908 158.45C65.5784 157.939 66.0652 157.603 66.5763 157.691C67.0874 157.778 67.4233 158.265 67.3357 158.776C67.248 159.287 66.7613 159.628 66.2502 159.536C65.7439 159.443 65.4032 158.956 65.4908 158.45Z" fill="#FAC39D"/>
<path d="M73.6587 144.523C73.7025 144.007 74.16 143.628 74.6712 143.671C75.1871 143.715 75.5668 144.173 75.523 144.684C75.4792 145.195 75.0216 145.58 74.5105 145.536C73.9994 145.492 73.6149 145.039 73.6587 144.523Z" fill="#FAC39D"/>
<path d="M73.3325 148.252C73.3764 147.736 73.8339 147.356 74.345 147.4C74.861 147.444 75.2407 147.901 75.1969 148.413C75.1531 148.929 74.6955 149.308 74.1844 149.264C73.6684 149.225 73.2887 148.768 73.3325 148.252Z" fill="#FAC39D"/>
<path d="M73.0061 151.986C73.0499 151.47 73.5075 151.09 74.0186 151.134C74.5346 151.177 74.9143 151.635 74.8705 152.146C74.8267 152.662 74.3691 153.042 73.858 152.998C73.342 152.954 72.9623 152.502 73.0061 151.986Z" fill="#FAC39D"/>
<path d="M72.68 155.719C72.7238 155.203 73.1813 154.823 73.6924 154.867C74.2084 154.911 74.5881 155.369 74.5443 155.88C74.5005 156.396 74.0429 156.775 73.5318 156.732C73.0158 156.688 72.6361 156.235 72.68 155.719Z" fill="#FAC39D"/>
<path d="M72.354 159.448C72.3978 158.932 72.8554 158.552 73.3665 158.596C73.8825 158.64 74.2622 159.097 74.2184 159.608C74.1745 160.124 73.717 160.504 73.2059 160.46C72.6899 160.416 72.3053 159.964 72.354 159.448Z" fill="#FAC39D"/>
<path d="M79.2715 144.864C79.2715 144.348 79.6901 143.929 80.2061 143.929C80.7221 143.929 81.1407 144.348 81.1407 144.864C81.1407 145.38 80.7221 145.798 80.2061 145.798C79.695 145.803 79.2715 145.385 79.2715 144.864Z" fill="#FAC39D"/>
<path d="M79.2712 148.612C79.2712 148.096 79.6899 147.677 80.2058 147.677C80.7218 147.677 81.1404 148.096 81.1404 148.612C81.1404 149.128 80.7218 149.546 80.2058 149.546C79.6947 149.546 79.2712 149.128 79.2712 148.612Z" fill="#FAC39D"/>
<path d="M79.2712 152.355C79.2712 151.839 79.6899 151.421 80.2058 151.421C80.7218 151.421 81.1404 151.839 81.1404 152.355C81.1404 152.871 80.7218 153.29 80.2058 153.29C79.6947 153.295 79.2712 152.876 79.2712 152.355Z" fill="#FAC39D"/>
<path d="M79.2712 156.103C79.2712 155.587 79.6899 155.169 80.2058 155.169C80.7218 155.169 81.1404 155.587 81.1404 156.103C81.1404 156.619 80.7218 157.038 80.2058 157.038C79.6947 157.038 79.2712 156.619 79.2712 156.103Z" fill="#FAC39D"/>
<path d="M79.2712 159.851C79.2712 159.335 79.6899 158.917 80.2058 158.917C80.7218 158.917 81.1404 159.335 81.1404 159.851C81.1404 160.367 80.7218 160.786 80.2058 160.786C79.6947 160.786 79.2712 160.367 79.2712 159.851Z" fill="#FAC39D"/>
<path d="M84.898 144.718C84.8542 144.202 85.2338 143.749 85.7498 143.705C86.2658 143.662 86.7185 144.041 86.7623 144.557C86.8061 145.073 86.4264 145.526 85.9105 145.57C85.3945 145.613 84.9418 145.234 84.898 144.718Z" fill="#FAC39D"/>
<path d="M85.2239 148.451C85.1801 147.935 85.5598 147.483 86.0758 147.439C86.5917 147.395 87.0444 147.775 87.0883 148.291C87.1321 148.807 86.7524 149.259 86.2364 149.303C85.7204 149.347 85.2677 148.962 85.2239 148.451Z" fill="#FAC39D"/>
<path d="M85.5501 152.18C85.5063 151.664 85.8859 151.211 86.4019 151.168C86.9179 151.124 87.3706 151.503 87.4144 152.019C87.4582 152.535 87.0785 152.988 86.5626 153.032C86.0466 153.076 85.5939 152.696 85.5501 152.18Z" fill="#FAC39D"/>
<path d="M85.8762 155.914C85.8324 155.398 86.2121 154.945 86.7281 154.901C87.2441 154.857 87.6968 155.237 87.7406 155.753C87.7844 156.269 87.4047 156.722 86.8887 156.766C86.3776 156.809 85.9201 156.43 85.8762 155.914Z" fill="#FAC39D"/>
<path d="M86.2024 159.642C86.1586 159.126 86.5383 158.674 87.0543 158.63C87.5702 158.586 88.023 158.966 88.0668 159.482C88.1106 159.998 87.7309 160.45 87.2149 160.494C86.7038 160.543 86.2462 160.158 86.2024 159.642Z" fill="#FAC39D"/>
<path d="M90.4863 144.08C90.3987 143.569 90.7346 143.087 91.2457 142.995C91.7568 142.907 92.2387 143.243 92.3312 143.754C92.4188 144.265 92.0829 144.747 91.5718 144.84C91.0607 144.932 90.5739 144.591 90.4863 144.08Z" fill="#FAC39D"/>
<path d="M91.1386 147.77C91.051 147.259 91.3869 146.777 91.898 146.684C92.4091 146.597 92.891 146.933 92.9835 147.444C93.0711 147.955 92.7353 148.437 92.2241 148.529C91.713 148.617 91.2263 148.281 91.1386 147.77Z" fill="#FAC39D"/>
<path d="M91.7859 151.46C91.6982 150.949 92.0341 150.467 92.5452 150.374C93.0563 150.287 93.5382 150.622 93.6307 151.134C93.7183 151.645 93.3825 152.127 92.8714 152.219C92.3603 152.307 91.8783 151.966 91.7859 151.46Z" fill="#FAC39D"/>
<path d="M92.4384 155.149C92.3508 154.638 92.6867 154.156 93.1978 154.064C93.7089 153.976 94.1908 154.312 94.2833 154.823C94.3709 155.334 94.0351 155.816 93.524 155.909C93.0128 155.996 92.5261 155.656 92.4384 155.149Z" fill="#FAC39D"/>
<path d="M93.0854 158.834C92.9978 158.323 93.3337 157.841 93.8448 157.749C94.3559 157.661 94.8378 157.997 94.9303 158.508C95.0179 159.019 94.682 159.501 94.1709 159.594C93.6647 159.686 93.1779 159.345 93.0854 158.834Z" fill="#FAC39D"/>
<path d="M95.9967 142.96C95.8604 142.459 96.1574 141.948 96.6588 141.812C97.1601 141.68 97.6712 141.972 97.8075 142.474C97.9438 142.975 97.6469 143.486 97.1455 143.622C96.6441 143.754 96.133 143.457 95.9967 142.96Z" fill="#FAC39D"/>
<path d="M96.9701 146.577C96.8338 146.076 97.1308 145.565 97.6321 145.428C98.1335 145.292 98.6446 145.589 98.7809 146.091C98.9123 146.592 98.6203 147.103 98.1189 147.239C97.6175 147.371 97.1016 147.074 96.9701 146.577Z" fill="#FAC39D"/>
<path d="M97.9389 150.194C97.8026 149.692 98.0995 149.181 98.6009 149.045C99.1023 148.909 99.6134 149.206 99.7497 149.707C99.8811 150.208 99.589 150.72 99.0877 150.856C98.5863 150.992 98.0703 150.695 97.9389 150.194Z" fill="#FAC39D"/>
<path d="M99.813 154.507C100.329 154.507 100.748 154.088 100.748 153.572C100.748 153.056 100.329 152.638 99.813 152.638C99.2968 152.638 98.8784 153.056 98.8784 153.572C98.8784 154.088 99.2968 154.507 99.813 154.507Z" fill="#FAC39D"/>
<path d="M99.8762 157.432C99.7447 156.931 100.037 156.42 100.538 156.283C101.04 156.152 101.551 156.444 101.687 156.945C101.818 157.447 101.526 157.958 101.025 158.094C100.524 158.231 100.012 157.929 99.8762 157.432Z" fill="#FAC39D"/>
<path d="M101.39 141.359C101.215 140.872 101.463 140.337 101.95 140.157C102.437 139.981 102.972 140.23 103.152 140.716C103.327 141.203 103.079 141.739 102.592 141.919C102.106 142.099 101.57 141.846 101.39 141.359Z" fill="#FAC39D"/>
<path d="M102.675 144.878C102.5 144.392 102.748 143.856 103.235 143.676C103.722 143.501 104.257 143.749 104.437 144.236C104.613 144.723 104.364 145.258 103.878 145.438C103.386 145.618 102.851 145.365 102.675 144.878Z" fill="#FAC39D"/>
<path d="M103.956 148.398C103.78 147.911 104.029 147.376 104.515 147.195C105.002 147.02 105.538 147.268 105.718 147.755C105.893 148.242 105.645 148.777 105.158 148.958C104.671 149.138 104.131 148.885 103.956 148.398Z" fill="#FAC39D"/>
<path d="M105.236 151.922C105.061 151.435 105.309 150.9 105.796 150.72C106.282 150.544 106.818 150.793 106.998 151.279C107.173 151.766 106.925 152.302 106.438 152.482C105.951 152.657 105.411 152.404 105.236 151.922Z" fill="#FAC39D"/>
<path d="M106.516 155.441C106.34 154.954 106.589 154.419 107.075 154.239C107.562 154.064 108.098 154.312 108.278 154.799C108.453 155.286 108.205 155.821 107.718 156.001C107.231 156.176 106.696 155.928 106.516 155.441Z" fill="#FAC39D"/>
<path d="M106.628 139.3C106.409 138.833 106.613 138.273 107.08 138.054C107.548 137.835 108.108 138.039 108.327 138.507C108.546 138.974 108.341 139.534 107.874 139.753C107.402 139.972 106.842 139.767 106.628 139.3Z" fill="#FAC39D"/>
<path d="M108.21 142.693C107.991 142.226 108.195 141.666 108.663 141.447C109.13 141.228 109.69 141.432 109.909 141.899C110.128 142.367 109.923 142.926 109.456 143.146C108.984 143.365 108.429 143.16 108.21 142.693Z" fill="#FAC39D"/>
<path d="M109.792 146.086C109.573 145.618 109.777 145.058 110.244 144.839C110.712 144.62 111.271 144.825 111.49 145.292C111.709 145.759 111.505 146.319 111.038 146.538C110.566 146.757 110.011 146.558 109.792 146.086Z" fill="#FAC39D"/>
<path d="M111.374 149.483C111.155 149.016 111.359 148.456 111.826 148.237C112.294 148.018 112.853 148.223 113.072 148.69C113.292 149.157 113.087 149.717 112.62 149.936C112.152 150.155 111.593 149.951 111.374 149.483Z" fill="#FAC39D"/>
<path d="M112.956 152.876C112.737 152.409 112.941 151.849 113.408 151.63C113.876 151.411 114.435 151.615 114.654 152.083C114.874 152.55 114.669 153.11 114.202 153.329C113.734 153.548 113.175 153.348 112.956 152.876Z" fill="#FAC39D"/>
<path d="M111.661 136.788C111.403 136.34 111.554 135.766 112.002 135.508C112.45 135.25 113.024 135.401 113.282 135.849C113.54 136.297 113.389 136.871 112.941 137.129C112.493 137.387 111.919 137.236 111.661 136.788Z" fill="#FAC39D"/>
<path d="M113.535 140.03C113.277 139.582 113.428 139.008 113.876 138.75C114.324 138.492 114.898 138.643 115.156 139.091C115.414 139.539 115.263 140.113 114.815 140.371C114.363 140.634 113.793 140.478 113.535 140.03Z" fill="#FAC39D"/>
<path d="M115.404 143.277C115.146 142.829 115.297 142.255 115.745 141.997C116.193 141.739 116.767 141.89 117.025 142.337C117.283 142.785 117.132 143.36 116.685 143.618C116.237 143.876 115.662 143.725 115.404 143.277Z" fill="#FAC39D"/>
<path d="M117.278 146.519C117.02 146.071 117.171 145.497 117.619 145.239C118.067 144.981 118.641 145.131 118.899 145.579C119.157 146.027 119.006 146.602 118.559 146.86C118.111 147.122 117.536 146.967 117.278 146.519Z" fill="#FAC39D"/>
<path d="M119.152 149.766C118.894 149.318 119.045 148.743 119.493 148.485C119.941 148.227 120.515 148.378 120.773 148.826C121.031 149.274 120.881 149.848 120.433 150.106C119.985 150.364 119.41 150.213 119.152 149.766Z" fill="#FAC39D"/>
<path d="M116.456 133.848C116.159 133.425 116.261 132.84 116.685 132.544C117.108 132.247 117.692 132.349 117.989 132.772C118.286 133.196 118.184 133.78 117.76 134.077C117.337 134.374 116.753 134.272 116.456 133.848Z" fill="#FAC39D"/>
<path d="M118.603 136.915C118.306 136.492 118.408 135.907 118.831 135.611C119.255 135.314 119.839 135.416 120.136 135.839C120.433 136.263 120.331 136.847 119.907 137.144C119.484 137.441 118.899 137.339 118.603 136.915Z" fill="#FAC39D"/>
<path d="M120.754 139.986C120.457 139.563 120.559 138.979 120.983 138.682C121.406 138.385 121.99 138.487 122.287 138.911C122.584 139.334 122.482 139.918 122.058 140.215C121.635 140.512 121.051 140.41 120.754 139.986Z" fill="#FAC39D"/>
<path d="M122.901 143.053C122.604 142.63 122.706 142.046 123.129 141.749C123.553 141.452 124.137 141.554 124.434 141.977C124.731 142.401 124.629 142.985 124.205 143.282C123.782 143.579 123.198 143.477 122.901 143.053Z" fill="#FAC39D"/>
<path d="M125.052 146.12C124.755 145.696 124.858 145.112 125.281 144.815C125.705 144.518 126.289 144.62 126.586 145.044C126.882 145.467 126.78 146.052 126.357 146.349C125.928 146.65 125.349 146.543 125.052 146.12Z" fill="#FAC39D"/>
<path d="M120.978 130.499C120.647 130.105 120.696 129.511 121.095 129.18C121.489 128.849 122.083 128.898 122.414 129.297C122.745 129.691 122.697 130.285 122.297 130.616C121.903 130.947 121.309 130.898 120.978 130.499Z" fill="#FAC39D"/>
<path d="M123.388 133.371C123.057 132.977 123.105 132.383 123.504 132.052C123.899 131.721 124.493 131.77 124.824 132.169C125.155 132.563 125.106 133.157 124.707 133.488C124.308 133.819 123.719 133.765 123.388 133.371Z" fill="#FAC39D"/>
<path d="M125.792 136.238C125.461 135.844 125.51 135.25 125.909 134.919C126.304 134.588 126.897 134.637 127.228 135.036C127.559 135.43 127.511 136.024 127.112 136.355C126.717 136.686 126.128 136.637 125.792 136.238Z" fill="#FAC39D"/>
<path d="M128.202 139.11C127.871 138.716 127.919 138.122 128.319 137.791C128.713 137.46 129.307 137.509 129.638 137.908C129.969 138.302 129.92 138.896 129.521 139.227C129.127 139.558 128.533 139.504 128.202 139.11Z" fill="#FAC39D"/>
<path d="M130.611 141.977C130.28 141.583 130.329 140.989 130.728 140.658C131.123 140.327 131.716 140.376 132.047 140.775C132.378 141.169 132.33 141.763 131.931 142.094C131.531 142.425 130.942 142.376 130.611 141.977Z" fill="#FAC39D"/>
<path d="M125.189 126.775C124.824 126.41 124.824 125.816 125.189 125.451C125.554 125.086 126.148 125.086 126.513 125.451C126.878 125.816 126.878 126.41 126.513 126.775C126.148 127.14 125.559 127.14 125.189 126.775Z" fill="#FAC39D"/>
<path d="M127.841 129.423C127.476 129.058 127.476 128.464 127.841 128.099C128.207 127.734 128.8 127.734 129.165 128.099C129.531 128.464 129.531 129.058 129.165 129.423C128.796 129.788 128.207 129.788 127.841 129.423Z" fill="#FAC39D"/>
<path d="M130.489 132.071C130.124 131.706 130.124 131.112 130.489 130.747C130.854 130.382 131.448 130.382 131.813 130.747C132.178 131.112 132.178 131.706 131.813 132.071C131.448 132.437 130.854 132.437 130.489 132.071Z" fill="#FAC39D"/>
<path d="M133.138 134.719C132.773 134.354 132.773 133.761 133.138 133.395C133.503 133.03 134.097 133.03 134.462 133.395C134.827 133.761 134.827 134.354 134.462 134.719C134.097 135.085 133.503 135.085 133.138 134.719Z" fill="#FAC39D"/>
<path d="M135.786 137.367C135.421 137.002 135.421 136.409 135.786 136.043C136.151 135.678 136.745 135.678 137.11 136.043C137.475 136.409 137.475 137.002 137.11 137.367C136.745 137.733 136.151 137.733 135.786 137.367Z" fill="#FAC39D"/>
<path d="M129.063 122.691C128.669 122.36 128.616 121.766 128.947 121.372C129.278 120.978 129.871 120.924 130.266 121.255C130.66 121.586 130.714 122.18 130.383 122.574C130.052 122.973 129.458 123.027 129.063 122.691Z" fill="#FAC39D"/>
<path d="M131.93 125.101C131.536 124.77 131.483 124.176 131.814 123.782C132.145 123.387 132.738 123.334 133.133 123.665C133.527 123.996 133.58 124.59 133.249 124.984C132.918 125.383 132.329 125.432 131.93 125.101Z" fill="#FAC39D"/>
<path d="M134.802 127.51C134.408 127.179 134.355 126.585 134.686 126.191C135.017 125.797 135.61 125.743 136.005 126.074C136.399 126.405 136.453 126.999 136.122 127.393C135.791 127.788 135.197 127.841 134.802 127.51Z" fill="#FAC39D"/>
<path d="M137.67 129.915C137.275 129.584 137.222 128.99 137.553 128.596C137.884 128.202 138.478 128.148 138.872 128.479C139.266 128.81 139.32 129.404 138.989 129.798C138.658 130.197 138.069 130.246 137.67 129.915Z" fill="#FAC39D"/>
<path d="M140.541 132.324C140.147 131.993 140.094 131.4 140.425 131.005C140.756 130.611 141.349 130.557 141.744 130.888C142.138 131.219 142.192 131.813 141.861 132.208C141.53 132.607 140.936 132.655 140.541 132.324Z" fill="#FAC39D"/>
<path d="M132.563 118.291C132.14 117.994 132.038 117.41 132.334 116.986C132.631 116.563 133.216 116.461 133.639 116.757C134.063 117.054 134.165 117.639 133.868 118.062C133.571 118.485 132.987 118.588 132.563 118.291Z" fill="#FAC39D"/>
<path d="M135.63 120.438C135.207 120.141 135.104 119.557 135.401 119.133C135.698 118.71 136.282 118.607 136.706 118.904C137.129 119.201 137.232 119.785 136.935 120.209C136.638 120.632 136.058 120.735 135.63 120.438Z" fill="#FAC39D"/>
<path d="M138.702 122.589C138.278 122.292 138.176 121.708 138.473 121.285C138.77 120.861 139.354 120.759 139.777 121.056C140.201 121.353 140.303 121.937 140.006 122.36C139.709 122.779 139.125 122.881 138.702 122.589Z" fill="#FAC39D"/>
<path d="M141.768 124.736C141.345 124.439 141.243 123.855 141.54 123.431C141.836 123.008 142.421 122.906 142.844 123.203C143.268 123.5 143.37 124.084 143.073 124.507C142.776 124.931 142.192 125.033 141.768 124.736Z" fill="#FAC39D"/>
<path d="M144.84 126.882C144.416 126.585 144.314 126.001 144.611 125.578C144.908 125.154 145.492 125.052 145.916 125.349C146.339 125.646 146.441 126.23 146.144 126.654C145.847 127.077 145.263 127.179 144.84 126.882Z" fill="#FAC39D"/>
<path d="M135.669 113.598C135.221 113.34 135.065 112.766 135.328 112.318C135.586 111.87 136.161 111.715 136.608 111.978C137.056 112.235 137.212 112.81 136.949 113.258C136.691 113.706 136.117 113.856 135.669 113.598Z" fill="#FAC39D"/>
<path d="M138.911 115.473C138.463 115.215 138.307 114.64 138.57 114.193C138.828 113.745 139.403 113.589 139.85 113.852C140.298 114.11 140.454 114.684 140.191 115.132C139.933 115.575 139.359 115.731 138.911 115.473Z" fill="#FAC39D"/>
<path d="M142.158 117.347C141.71 117.089 141.554 116.514 141.817 116.066C142.075 115.618 142.65 115.463 143.097 115.726C143.545 115.984 143.701 116.558 143.438 117.006C143.175 117.449 142.606 117.604 142.158 117.347Z" fill="#FAC39D"/>
<path d="M145.4 119.216C144.952 118.958 144.796 118.384 145.059 117.936C145.317 117.488 145.891 117.332 146.339 117.595C146.787 117.853 146.943 118.427 146.68 118.875C146.422 119.323 145.848 119.474 145.4 119.216Z" fill="#FAC39D"/>
<path d="M148.646 121.09C148.199 120.832 148.043 120.258 148.306 119.81C148.564 119.362 149.138 119.206 149.586 119.469C150.034 119.727 150.19 120.301 149.927 120.749C149.664 121.197 149.094 121.348 148.646 121.09Z" fill="#FAC39D"/>
<path d="M138.351 108.653C137.883 108.433 137.679 107.879 137.898 107.406C138.117 106.939 138.672 106.735 139.144 106.954C139.612 107.173 139.816 107.728 139.597 108.2C139.378 108.672 138.818 108.872 138.351 108.653Z" fill="#FAC39D"/>
<path d="M141.748 110.239C141.281 110.02 141.077 109.465 141.296 108.993C141.515 108.526 142.07 108.322 142.542 108.541C143.009 108.76 143.214 109.315 142.995 109.787C142.771 110.254 142.216 110.454 141.748 110.239Z" fill="#FAC39D"/>
<path d="M145.142 111.821C144.674 111.602 144.47 111.047 144.689 110.575C144.908 110.108 145.463 109.903 145.935 110.123C146.402 110.342 146.607 110.896 146.388 111.369C146.169 111.836 145.609 112.04 145.142 111.821Z" fill="#FAC39D"/>
<path d="M148.539 113.403C148.072 113.184 147.867 112.629 148.086 112.157C148.305 111.69 148.86 111.486 149.332 111.705C149.8 111.924 150.004 112.479 149.785 112.951C149.561 113.418 149.006 113.622 148.539 113.403Z" fill="#FAC39D"/>
<path d="M151.932 114.985C151.464 114.766 151.26 114.212 151.479 113.739C151.698 113.272 152.253 113.068 152.725 113.287C153.193 113.506 153.397 114.061 153.178 114.533C152.959 115 152.399 115.205 151.932 114.985Z" fill="#FAC39D"/>
<path d="M140.595 103.493C140.108 103.318 139.86 102.777 140.035 102.29C140.21 101.804 140.751 101.555 141.237 101.731C141.724 101.906 141.973 102.446 141.797 102.933C141.617 103.42 141.082 103.673 140.595 103.493Z" fill="#FAC39D"/>
<path d="M144.114 104.778C143.628 104.603 143.379 104.062 143.555 103.576C143.73 103.089 144.27 102.841 144.757 103.016C145.244 103.191 145.492 103.731 145.317 104.218C145.137 104.705 144.601 104.953 144.114 104.778Z" fill="#FAC39D"/>
<path d="M147.634 106.058C147.147 105.883 146.899 105.343 147.074 104.856C147.249 104.369 147.79 104.121 148.276 104.296C148.763 104.471 149.011 105.012 148.836 105.498C148.656 105.985 148.121 106.233 147.634 106.058Z" fill="#FAC39D"/>
<path d="M151.153 107.338C150.666 107.163 150.418 106.623 150.593 106.136C150.768 105.649 151.309 105.401 151.796 105.576C152.282 105.751 152.531 106.292 152.355 106.778C152.18 107.265 151.64 107.514 151.153 107.338Z" fill="#FAC39D"/>
<path d="M154.673 108.619C154.186 108.443 153.938 107.903 154.113 107.416C154.288 106.929 154.828 106.681 155.315 106.856C155.802 107.032 156.05 107.572 155.875 108.059C155.7 108.546 155.159 108.799 154.673 108.619Z" fill="#FAC39D"/>
<path d="M142.377 98.1629C141.875 98.0314 141.578 97.5155 141.715 97.0141C141.851 96.5127 142.362 96.2158 142.864 96.3521C143.365 96.4835 143.662 96.9995 143.526 97.5009C143.394 97.9974 142.878 98.2943 142.377 98.1629Z" fill="#FAC39D"/>
<path d="M145.998 99.1314C145.497 99 145.2 98.484 145.336 97.9827C145.472 97.4813 145.983 97.1844 146.485 97.3206C146.986 97.4521 147.283 97.9681 147.147 98.4694C147.011 98.9708 146.495 99.2629 145.998 99.1314Z" fill="#FAC39D"/>
<path d="M149.615 100.1C149.113 99.9687 148.816 99.4527 148.953 98.9513C149.089 98.45 149.6 98.153 150.102 98.2893C150.603 98.4208 150.9 98.9367 150.764 99.4381C150.627 99.9395 150.116 100.232 149.615 100.1Z" fill="#FAC39D"/>
<path d="M153.232 101.069C152.73 100.937 152.433 100.421 152.57 99.9201C152.701 99.4187 153.217 99.1218 153.719 99.2581C154.22 99.3895 154.517 99.9055 154.381 100.407C154.244 100.908 153.733 101.205 153.232 101.069Z" fill="#FAC39D"/>
<path d="M156.853 102.037C156.352 101.906 156.055 101.39 156.191 100.889C156.323 100.387 156.839 100.09 157.34 100.227C157.841 100.358 158.138 100.874 158.002 101.375C157.866 101.877 157.35 102.174 156.853 102.037Z" fill="#FAC39D"/>
<path d="M143.691 92.6915C143.18 92.6039 142.839 92.1171 142.931 91.606C143.019 91.0949 143.506 90.759 144.017 90.8466C144.528 90.9343 144.869 91.421 144.776 91.9321C144.689 92.4384 144.202 92.7792 143.691 92.6915Z" fill="#FAC39D"/>
<path d="M147.381 93.3391C146.87 93.2515 146.529 92.7647 146.621 92.2536C146.709 91.7425 147.196 91.4066 147.707 91.4942C148.218 91.5819 148.554 92.0686 148.466 92.5798C148.374 93.0909 147.892 93.4316 147.381 93.3391Z" fill="#FAC39D"/>
<path d="M151.07 93.9914C150.559 93.9038 150.219 93.417 150.311 92.9059C150.399 92.3948 150.885 92.0589 151.397 92.1465C151.908 92.2341 152.248 92.7209 152.156 93.232C152.063 93.7431 151.582 94.0839 151.07 93.9914Z" fill="#FAC39D"/>
<path d="M154.76 94.6433C154.249 94.5557 153.908 94.069 154.001 93.5579C154.088 93.0467 154.575 92.706 155.086 92.7985C155.597 92.8861 155.933 93.3729 155.846 93.884C155.753 94.3902 155.266 94.731 154.76 94.6433Z" fill="#FAC39D"/>
<path d="M158.45 95.2909C157.939 95.2033 157.598 94.7165 157.69 94.2054C157.778 93.6943 158.265 93.3584 158.776 93.446C159.287 93.5336 159.628 94.0204 159.535 94.5315C159.443 95.0427 158.956 95.3834 158.45 95.2909Z" fill="#FAC39D"/>
<path d="M144.523 87.1274C144.007 87.0836 143.627 86.6261 143.671 86.1149C143.715 85.599 144.173 85.2193 144.684 85.2631C145.195 85.3069 145.579 85.7645 145.536 86.2756C145.492 86.7915 145.039 87.1712 144.523 87.1274Z" fill="#FAC39D"/>
<path d="M148.252 87.4533C147.736 87.4095 147.356 86.952 147.4 86.4409C147.443 85.9249 147.901 85.5452 148.412 85.589C148.928 85.6328 149.308 86.0904 149.264 86.6015C149.225 87.1175 148.768 87.4972 148.252 87.4533Z" fill="#FAC39D"/>
<path d="M151.985 87.7796C151.469 87.7358 151.09 87.2783 151.133 86.7672C151.177 86.2512 151.635 85.8715 152.146 85.9153C152.662 85.9591 153.041 86.4167 152.998 86.9278C152.954 87.4438 152.501 87.8235 151.985 87.7796Z" fill="#FAC39D"/>
<path d="M155.719 88.1059C155.203 88.0621 154.823 87.6045 154.867 87.0934C154.911 86.5774 155.368 86.1977 155.879 86.2415C156.395 86.2853 156.775 86.7429 156.731 87.254C156.688 87.77 156.235 88.1497 155.719 88.1059Z" fill="#FAC39D"/>
<path d="M159.448 88.4319C158.932 88.3881 158.552 87.9306 158.596 87.4194C158.64 86.9035 159.097 86.5238 159.608 86.5676C160.124 86.6114 160.504 87.069 160.46 87.5801C160.416 88.0912 159.964 88.4758 159.448 88.4319Z" fill="#FAC39D"/>
<path d="M144.864 81.5113C144.348 81.5113 143.929 81.0927 143.929 80.5767C143.929 80.0607 144.348 79.6421 144.864 79.6421C145.38 79.6421 145.799 80.0607 145.799 80.5767C145.804 81.0927 145.385 81.5113 144.864 81.5113Z" fill="#FAC39D"/>
<path d="M148.612 81.51C148.096 81.51 147.678 81.0914 147.678 80.5754C147.678 80.0594 148.096 79.6408 148.612 79.6408C149.128 79.6408 149.547 80.0594 149.547 80.5754C149.547 81.0914 149.128 81.51 148.612 81.51Z" fill="#FAC39D"/>
<path d="M152.356 81.51C151.84 81.51 151.421 81.0914 151.421 80.5754C151.421 80.0594 151.84 79.6408 152.356 79.6408C152.872 79.6408 153.29 80.0594 153.29 80.5754C153.295 81.0914 152.877 81.51 152.356 81.51Z" fill="#FAC39D"/>
<path d="M156.104 81.51C155.588 81.51 155.169 81.0914 155.169 80.5754C155.169 80.0594 155.588 79.6408 156.104 79.6408C156.62 79.6408 157.038 80.0594 157.038 80.5754C157.038 81.0914 156.62 81.51 156.104 81.51Z" fill="#FAC39D"/>
<path d="M159.847 81.51C159.331 81.51 158.913 81.0914 158.913 80.5754C158.913 80.0594 159.331 79.6408 159.847 79.6408C160.363 79.6408 160.782 80.0594 160.782 80.5754C160.787 81.0914 160.368 81.51 159.847 81.51Z" fill="#FAC39D"/>
<path d="M144.718 75.8882C144.202 75.932 143.749 75.5523 143.705 75.0363C143.662 74.5203 144.041 74.0676 144.557 74.0238C145.073 73.98 145.526 74.3597 145.57 74.8757C145.613 75.3917 145.234 75.8444 144.718 75.8882Z" fill="#FAC39D"/>
<path d="M148.451 75.562C147.936 75.6058 147.483 75.2261 147.439 74.7101C147.395 74.1942 147.775 73.7415 148.291 73.6977C148.807 73.6538 149.26 74.0335 149.303 74.5495C149.347 75.0606 148.963 75.5182 148.451 75.562Z" fill="#FAC39D"/>
<path d="M152.18 75.2359C151.664 75.2797 151.211 74.9 151.168 74.384C151.124 73.8681 151.503 73.4154 152.019 73.3715C152.535 73.3277 152.988 73.7074 153.032 74.2234C153.076 74.7345 152.696 75.1921 152.18 75.2359Z" fill="#FAC39D"/>
<path d="M155.913 74.9096C155.397 74.9534 154.945 74.5737 154.901 74.0577C154.857 73.5418 155.237 73.0891 155.753 73.0452C156.269 73.0014 156.721 73.3811 156.765 73.8971C156.809 74.4082 156.429 74.8658 155.913 74.9096Z" fill="#FAC39D"/>
<path d="M159.642 74.5836C159.126 74.6274 158.674 74.2477 158.63 73.7318C158.586 73.2158 158.966 72.7631 159.482 72.7193C159.998 72.6755 160.45 73.0551 160.494 73.5711C160.543 74.0822 160.158 74.5398 159.642 74.5836Z" fill="#FAC39D"/>
<path d="M144.08 70.3C143.569 70.3876 143.087 70.0517 142.995 69.5406C142.907 69.0295 143.243 68.5476 143.754 68.4551C144.265 68.3675 144.747 68.7034 144.84 69.2145C144.932 69.7256 144.591 70.2075 144.08 70.3Z" fill="#FAC39D"/>
<path d="M147.77 69.6477C147.259 69.7353 146.777 69.3994 146.685 68.8883C146.592 68.3772 146.933 67.8953 147.444 67.8028C147.955 67.7152 148.437 68.0511 148.53 68.5622C148.617 69.0733 148.281 69.5601 147.77 69.6477Z" fill="#FAC39D"/>
<path d="M151.46 69.0002C150.949 69.0879 150.467 68.752 150.374 68.2409C150.287 67.7298 150.622 67.2479 151.134 67.1554C151.645 67.0677 152.127 67.4036 152.219 67.9147C152.307 68.421 151.966 68.9078 151.46 69.0002Z" fill="#FAC39D"/>
<path d="M155.15 68.348C154.639 68.4356 154.157 68.0997 154.064 67.5886C153.977 67.0775 154.312 66.5956 154.824 66.5031C155.335 66.4155 155.817 66.7513 155.909 67.2624C155.997 67.7736 155.656 68.2603 155.15 68.348Z" fill="#FAC39D"/>
<path d="M158.835 67.6957C158.323 67.7833 157.842 67.4474 157.749 66.9363C157.657 66.4252 157.997 65.9433 158.508 65.8508C159.02 65.7632 159.501 66.0991 159.594 66.6102C159.686 67.1213 159.346 67.608 158.835 67.6957Z" fill="#FAC39D"/>
<path d="M142.961 64.7848C142.459 64.9211 141.948 64.6242 141.812 64.1228C141.68 63.6214 141.972 63.1103 142.474 62.974C142.975 62.8426 143.486 63.1346 143.623 63.636C143.754 64.1374 143.457 64.6534 142.961 64.7848Z" fill="#FAC39D"/>
<path d="M146.577 63.816C146.076 63.9523 145.565 63.6553 145.428 63.1539C145.297 62.6526 145.589 62.1414 146.09 62.0051C146.592 61.8737 147.103 62.1658 147.239 62.6672C147.371 63.1685 147.074 63.6845 146.577 63.816Z" fill="#FAC39D"/>
<path d="M150.194 62.8474C149.693 62.9788 149.181 62.6868 149.045 62.1854C148.914 61.684 149.206 61.1729 149.707 61.0366C150.209 60.9003 150.72 61.1972 150.856 61.6986C150.992 62.2 150.695 62.716 150.194 62.8474Z" fill="#FAC39D"/>
<path d="M153.572 61.908C154.088 61.908 154.507 61.4895 154.507 60.9734C154.507 60.4572 154.088 60.0388 153.572 60.0388C153.056 60.0388 152.637 60.4572 152.637 60.9734C152.637 61.4895 153.056 61.908 153.572 61.908Z" fill="#FAC39D"/>
<path d="M157.432 60.91C156.931 61.0463 156.42 60.7494 156.284 60.248C156.152 59.7467 156.444 59.2355 156.946 59.0993C157.447 58.9678 157.958 59.2599 158.094 59.7613C158.226 60.2626 157.929 60.7737 157.432 60.91Z" fill="#FAC39D"/>
<path d="M141.359 59.3911C140.872 59.5664 140.337 59.3181 140.157 58.8314C139.981 58.3446 140.23 57.8091 140.717 57.629C141.203 57.4538 141.739 57.702 141.919 58.1888C142.099 58.6804 141.846 59.2159 141.359 59.3911Z" fill="#FAC39D"/>
<path d="M144.879 58.1111C144.392 58.2864 143.856 58.0381 143.676 57.5513C143.501 57.0646 143.749 56.5291 144.236 56.349C144.723 56.1738 145.258 56.422 145.438 56.9088C145.618 57.4004 145.365 57.9359 144.879 58.1111Z" fill="#FAC39D"/>
<path d="M148.398 56.8308C147.911 57.0061 147.376 56.7578 147.196 56.271C147.02 55.7843 147.269 55.2488 147.755 55.0687C148.242 54.8935 148.778 55.1417 148.958 55.6285C149.138 56.1153 148.885 56.6556 148.398 56.8308Z" fill="#FAC39D"/>
<path d="M151.922 55.5504C151.436 55.7257 150.9 55.4774 150.72 54.9907C150.545 54.5039 150.793 53.9684 151.28 53.7883C151.767 53.6131 152.302 53.8613 152.482 54.3481C152.657 54.8349 152.404 55.3752 151.922 55.5504Z" fill="#FAC39D"/>
<path d="M155.442 54.2704C154.955 54.4456 154.419 54.1973 154.239 53.7106C154.064 53.2238 154.312 52.6883 154.799 52.5082C155.286 52.333 155.821 52.5813 156.001 53.068C156.177 53.5548 155.928 54.0903 155.442 54.2704Z" fill="#FAC39D"/>
<path d="M139.3 54.1585C138.833 54.3776 138.273 54.1731 138.054 53.7058C137.835 53.2385 138.039 52.6787 138.507 52.4597C138.974 52.2406 139.534 52.4451 139.753 52.9124C139.967 53.3846 139.767 53.9395 139.3 54.1585Z" fill="#FAC39D"/>
<path d="M142.693 52.5765C142.226 52.7955 141.666 52.5911 141.447 52.1238C141.228 51.6565 141.432 51.0967 141.9 50.8777C142.367 50.6586 142.927 50.863 143.146 51.3304C143.365 51.8025 143.16 52.3574 142.693 52.5765Z" fill="#FAC39D"/>
<path d="M146.086 50.9943C145.619 51.2133 145.059 51.0089 144.84 50.5416C144.621 50.0743 144.825 49.5145 145.292 49.2954C145.76 49.0764 146.319 49.2808 146.539 49.7481C146.758 50.2154 146.558 50.7752 146.086 50.9943Z" fill="#FAC39D"/>
<path d="M149.484 49.4125C149.016 49.6315 148.456 49.4271 148.237 48.9598C148.018 48.4925 148.223 47.9327 148.69 47.7137C149.157 47.4946 149.717 47.699 149.936 48.1663C150.155 48.6337 149.951 49.1934 149.484 49.4125Z" fill="#FAC39D"/>
<path d="M152.876 47.8255C152.409 48.0445 151.849 47.8401 151.63 47.3728C151.411 46.9055 151.616 46.3457 152.083 46.1266C152.55 45.9076 153.11 46.112 153.329 46.5793C153.548 47.0515 153.349 47.6064 152.876 47.8255Z" fill="#FAC39D"/>
<path d="M136.789 49.1252C136.341 49.3832 135.766 49.2323 135.508 48.7844C135.25 48.3366 135.401 47.7622 135.849 47.5042C136.297 47.2462 136.871 47.3971 137.129 47.8449C137.387 48.2928 137.236 48.8672 136.789 49.1252Z" fill="#FAC39D"/>
<path d="M140.031 47.2512C139.583 47.5092 139.008 47.3583 138.75 46.9105C138.492 46.4626 138.643 45.8882 139.091 45.6302C139.539 45.3723 140.113 45.5232 140.371 45.971C140.634 46.4237 140.478 46.9932 140.031 47.2512Z" fill="#FAC39D"/>
<path d="M143.277 45.3819C142.83 45.6399 142.255 45.489 141.997 45.0411C141.739 44.5933 141.89 44.0189 142.338 43.7609C142.786 43.5029 143.36 43.6538 143.618 44.1017C143.876 44.5495 143.725 45.119 143.277 45.3819Z" fill="#FAC39D"/>
<path d="M146.519 43.5079C146.072 43.7658 145.497 43.6149 145.239 43.1671C144.981 42.7193 145.132 42.1449 145.58 41.8869C146.028 41.6289 146.602 41.7798 146.86 42.2276C147.123 42.6755 146.967 43.2499 146.519 43.5079Z" fill="#FAC39D"/>
<path d="M149.766 41.6338C149.318 41.8918 148.744 41.7409 148.486 41.293C148.228 40.8452 148.379 40.2708 148.827 40.0128C149.275 39.7548 149.849 39.9057 150.107 40.3536C150.365 40.8014 150.214 41.3758 149.766 41.6338Z" fill="#FAC39D"/>
<path d="M133.848 44.3306C133.425 44.6276 132.841 44.5253 132.544 44.1018C132.247 43.6784 132.349 43.0942 132.772 42.7973C133.196 42.5004 133.78 42.6026 134.077 43.0261C134.374 43.4496 134.272 44.0337 133.848 44.3306Z" fill="#FAC39D"/>
<path d="M136.915 42.179C136.492 42.4759 135.908 42.3737 135.611 41.9502C135.314 41.5267 135.416 40.9426 135.839 40.6457C136.263 40.3487 136.847 40.451 137.144 40.8745C137.441 41.3028 137.339 41.8821 136.915 42.179Z" fill="#FAC39D"/>
<path d="M139.986 40.0325C139.563 40.3294 138.979 40.2272 138.682 39.8037C138.385 39.3802 138.487 38.7961 138.911 38.4991C139.334 38.2022 139.918 38.3044 140.215 38.7279C140.512 39.1514 140.41 39.7355 139.986 40.0325Z" fill="#FAC39D"/>
<path d="M143.053 37.8855C142.629 38.1824 142.045 38.0802 141.748 37.6567C141.451 37.2332 141.554 36.6491 141.977 36.3522C142.401 36.0552 142.985 36.1575 143.282 36.5809C143.579 37.0044 143.476 37.5886 143.053 37.8855Z" fill="#FAC39D"/>
<path d="M146.12 35.7341C145.696 36.0311 145.112 35.9289 144.815 35.5054C144.518 35.0819 144.62 34.4977 145.044 34.2008C145.467 33.9039 146.052 34.0061 146.349 34.4296C146.65 34.8531 146.543 35.4372 146.12 35.7341Z" fill="#FAC39D"/>
<path d="M130.499 39.8084C130.105 40.1394 129.511 40.0907 129.18 39.6916C128.849 39.2973 128.898 38.7034 129.297 38.3724C129.691 38.0414 130.285 38.0901 130.616 38.4892C130.947 38.8835 130.898 39.4774 130.499 39.8084Z" fill="#FAC39D"/>
<path d="M133.371 37.3988C132.977 37.7298 132.383 37.6811 132.052 37.282C131.721 36.8877 131.77 36.2938 132.169 35.9628C132.563 35.6318 133.157 35.6805 133.488 36.0796C133.819 36.4788 133.765 37.0678 133.371 37.3988Z" fill="#FAC39D"/>
<path d="M136.239 34.9941C135.844 35.3251 135.25 35.2764 134.919 34.8772C134.588 34.483 134.637 33.8891 135.036 33.5581C135.43 33.2271 136.024 33.2757 136.355 33.6749C136.686 34.0692 136.638 34.6582 136.239 34.9941Z" fill="#FAC39D"/>
<path d="M139.11 32.5845C138.716 32.9155 138.122 32.8668 137.791 32.4676C137.46 32.0733 137.509 31.4795 137.908 31.1485C138.302 30.8175 138.896 30.8661 139.227 31.2653C139.558 31.6596 139.505 32.2535 139.11 32.5845Z" fill="#FAC39D"/>
<path d="M141.977 30.1751C141.583 30.5061 140.989 30.4574 140.658 30.0583C140.327 29.664 140.376 29.0701 140.775 28.7391C141.174 28.4081 141.763 28.4568 142.094 28.8559C142.425 29.2551 142.376 29.8441 141.977 30.1751Z" fill="#FAC39D"/>
<path d="M126.776 35.5928C126.41 35.9578 125.817 35.9578 125.452 35.5928C125.086 35.2277 125.086 34.6338 125.452 34.2687C125.817 33.9037 126.41 33.9037 126.776 34.2687C127.141 34.6338 127.141 35.2277 126.776 35.5928Z" fill="#FAC39D"/>
<path d="M129.424 32.9448C129.058 33.3099 128.465 33.3099 128.099 32.9448C127.734 32.5797 127.734 31.9859 128.099 31.6208C128.465 31.2557 129.058 31.2557 129.424 31.6208C129.789 31.9859 129.789 32.5797 129.424 32.9448Z" fill="#FAC39D"/>
<path d="M132.072 30.2966C131.707 30.6616 131.113 30.6616 130.748 30.2966C130.383 29.9315 130.383 29.3376 130.748 28.9725C131.113 28.6075 131.707 28.6075 132.072 28.9725C132.437 29.3376 132.437 29.9315 132.072 30.2966Z" fill="#FAC39D"/>
<path d="M134.72 27.6486C134.355 28.0137 133.761 28.0137 133.396 27.6486C133.031 27.2835 133.031 26.6897 133.396 26.3246C133.761 25.9595 134.355 25.9595 134.72 26.3246C135.085 26.6897 135.085 27.2835 134.72 27.6486Z" fill="#FAC39D"/>
<path d="M137.368 25.0007C137.003 25.3658 136.409 25.3658 136.044 25.0007C135.679 24.6356 135.679 24.0417 136.044 23.6766C136.409 23.3116 137.003 23.3116 137.368 23.6766C137.733 24.0417 137.733 24.6356 137.368 25.0007Z" fill="#FAC39D"/>
<path d="M122.691 31.7229C122.36 32.1172 121.767 32.1708 121.372 31.8398C120.978 31.5088 120.924 30.9149 121.255 30.5206C121.586 30.1263 122.18 30.0728 122.575 30.4038C122.974 30.7348 123.027 31.3287 122.691 31.7229Z" fill="#FAC39D"/>
<path d="M125.101 28.8557C124.77 29.25 124.176 29.3035 123.782 28.9725C123.387 28.6415 123.334 28.0476 123.665 27.6534C123.996 27.2591 124.59 27.2055 124.984 27.5365C125.383 27.8675 125.432 28.4565 125.101 28.8557Z" fill="#FAC39D"/>
<path d="M127.511 25.9838C127.18 26.3781 126.586 26.4316 126.192 26.1006C125.797 25.7696 125.744 25.1758 126.075 24.7815C126.406 24.3872 127 24.3336 127.394 24.6646C127.788 24.9956 127.842 25.5895 127.511 25.9838Z" fill="#FAC39D"/>
<path d="M129.915 23.1169C129.584 23.5111 128.99 23.5647 128.596 23.2337C128.202 22.9027 128.148 22.3088 128.479 21.9145C128.81 21.5202 129.404 21.4667 129.798 21.7977C130.197 22.1287 130.246 22.7177 129.915 23.1169Z" fill="#FAC39D"/>
<path d="M132.325 20.2449C131.994 20.6392 131.4 20.6927 131.006 20.3617C130.611 20.0307 130.558 19.4369 130.889 19.0426C131.22 18.6483 131.814 18.5947 132.208 18.9258C132.607 19.2568 132.656 19.8506 132.325 20.2449Z" fill="#FAC39D"/>
<path d="M118.291 28.2231C117.994 28.6466 117.41 28.7488 116.986 28.4519C116.563 28.155 116.46 27.5708 116.757 27.1474C117.054 26.7239 117.638 26.6216 118.062 26.9186C118.485 27.2155 118.588 27.7996 118.291 28.2231Z" fill="#FAC39D"/>
<path d="M120.438 25.1518C120.141 25.5753 119.557 25.6775 119.133 25.3806C118.71 25.0836 118.607 24.4995 118.904 24.076C119.201 23.6525 119.785 23.5503 120.209 23.8472C120.632 24.1442 120.735 24.7283 120.438 25.1518Z" fill="#FAC39D"/>
<path d="M122.589 22.0847C122.292 22.5082 121.708 22.6105 121.284 22.3135C120.861 22.0166 120.759 21.4325 121.056 21.009C121.353 20.5855 121.937 20.4833 122.36 20.7802C122.779 21.0771 122.881 21.6613 122.589 22.0847Z" fill="#FAC39D"/>
<path d="M124.736 19.0182C124.439 19.4417 123.855 19.5439 123.431 19.247C123.008 18.9501 122.905 18.3659 123.202 17.9425C123.499 17.519 124.083 17.4167 124.507 17.7137C124.93 18.0106 125.033 18.5947 124.736 19.0182Z" fill="#FAC39D"/>
<path d="M126.882 15.9467C126.586 16.3702 126.001 16.4724 125.578 16.1755C125.154 15.8785 125.052 15.2944 125.349 14.8709C125.646 14.4474 126.23 14.3452 126.654 14.6421C127.077 14.9391 127.179 15.5232 126.882 15.9467Z" fill="#FAC39D"/>
<path d="M113.598 25.1176C113.34 25.5654 112.766 25.7212 112.318 25.4583C111.87 25.2003 111.715 24.6259 111.977 24.1781C112.235 23.7303 112.81 23.5745 113.258 23.8374C113.705 24.0954 113.856 24.6698 113.598 25.1176Z" fill="#FAC39D"/>
<path d="M115.473 21.8756C115.215 22.3234 114.64 22.4792 114.192 22.2163C113.745 21.9583 113.589 21.3839 113.852 20.9361C114.11 20.4883 114.684 20.3325 115.132 20.5954C115.575 20.8534 115.731 21.4229 115.473 21.8756Z" fill="#FAC39D"/>
<path d="M117.347 18.6289C117.089 19.0767 116.514 19.2325 116.066 18.9696C115.619 18.7116 115.463 18.1372 115.726 17.6894C115.984 17.2416 116.558 17.0858 117.006 17.3487C117.449 17.6066 117.605 18.181 117.347 18.6289Z" fill="#FAC39D"/>
<path d="M119.216 15.387C118.958 15.8348 118.383 15.9906 117.936 15.7277C117.488 15.4697 117.332 14.8953 117.595 14.4475C117.853 13.9997 118.427 13.8439 118.875 14.1068C119.323 14.3648 119.474 14.9392 119.216 15.387Z" fill="#FAC39D"/>
<path d="M121.09 12.1402C120.832 12.5881 120.258 12.7438 119.81 12.481C119.362 12.223 119.206 11.6486 119.469 11.2007C119.727 10.7529 120.301 10.5971 120.749 10.86C121.197 11.118 121.348 11.6924 121.09 12.1402Z" fill="#FAC39D"/>
<path d="M108.653 22.4356C108.434 22.9029 107.879 23.1073 107.407 22.8883C106.939 22.6692 106.735 22.1143 106.954 21.6421C107.173 21.1748 107.728 20.9704 108.2 21.1894C108.672 21.4085 108.872 21.9634 108.653 22.4356Z" fill="#FAC39D"/>
<path d="M110.24 19.0381C110.021 19.5054 109.466 19.7098 108.994 19.4908C108.526 19.2717 108.322 18.7168 108.541 18.2447C108.76 17.7774 109.315 17.5729 109.787 17.792C110.254 18.011 110.454 18.5708 110.24 19.0381Z" fill="#FAC39D"/>
<path d="M111.822 15.6453C111.603 16.1126 111.048 16.317 110.576 16.098C110.109 15.8789 109.904 15.324 110.123 14.8518C110.342 14.3845 110.897 14.1801 111.369 14.3991C111.837 14.6182 112.041 15.1731 111.822 15.6453Z" fill="#FAC39D"/>
<path d="M113.404 12.2475C113.185 12.7148 112.63 12.9193 112.158 12.7002C111.69 12.4812 111.486 11.9262 111.705 11.4541C111.924 10.9868 112.479 10.7823 112.951 11.0014C113.418 11.2253 113.623 11.7802 113.404 12.2475Z" fill="#FAC39D"/>
<path d="M114.986 8.85469C114.767 9.322 114.212 9.52644 113.74 9.30739C113.272 9.08834 113.068 8.53342 113.287 8.06125C113.506 7.59395 114.061 7.3895 114.533 7.60855C115 7.8276 115.205 8.38739 114.986 8.85469Z" fill="#FAC39D"/>
<path d="M103.493 20.1913C103.318 20.678 102.777 20.9263 102.29 20.7511C101.804 20.5758 101.555 20.0355 101.731 19.5487C101.906 19.062 102.446 18.8137 102.933 18.9889C103.42 19.1691 103.673 19.7045 103.493 20.1913Z" fill="#FAC39D"/>
<path d="M104.778 16.6721C104.602 17.1588 104.062 17.4071 103.575 17.2318C103.089 17.0566 102.84 16.5163 103.016 16.0295C103.191 15.5427 103.731 15.2945 104.218 15.4697C104.705 15.6498 104.953 16.1853 104.778 16.6721Z" fill="#FAC39D"/>
<path d="M106.058 13.1526C105.883 13.6394 105.342 13.8877 104.856 13.7124C104.369 13.5372 104.121 12.9969 104.296 12.5101C104.471 12.0233 105.011 11.7751 105.498 11.9503C105.985 12.1255 106.233 12.6659 106.058 13.1526Z" fill="#FAC39D"/>
<path d="M107.338 9.62847C107.163 10.1152 106.623 10.3635 106.136 10.1883C105.649 10.013 105.401 9.47271 105.576 8.98593C105.751 8.49916 106.292 8.2509 106.778 8.42614C107.265 8.60625 107.514 9.14657 107.338 9.62847Z" fill="#FAC39D"/>
<path d="M108.619 6.109C108.443 6.59577 107.903 6.84403 107.416 6.66879C106.929 6.49355 106.681 5.95323 106.856 5.46646C107.032 4.97968 107.572 4.73143 108.059 4.90667C108.546 5.08678 108.799 5.62709 108.619 6.109Z" fill="#FAC39D"/>
<path d="M98.163 18.4048C98.0316 18.9062 97.5156 19.2031 97.0142 19.0668C96.5128 18.9305 96.2159 18.4194 96.3522 17.918C96.4885 17.4166 96.9996 17.1197 97.501 17.256C97.9975 17.3923 98.2944 17.9083 98.163 18.4048Z" fill="#FAC39D"/>
<path d="M99.1317 14.7879C99.0003 15.2893 98.4843 15.5862 97.983 15.4499C97.4816 15.3136 97.1847 14.8025 97.321 14.3011C97.4572 13.7998 97.9684 13.5028 98.4697 13.6391C98.9663 13.7754 99.2632 14.2865 99.1317 14.7879Z" fill="#FAC39D"/>
<path d="M100.1 11.1715C99.9688 11.6728 99.4528 11.9698 98.9515 11.8335C98.4501 11.6972 98.1532 11.1861 98.2895 10.6847C98.4209 10.1833 98.9369 9.88638 99.4382 10.0227C99.9348 10.159 100.232 10.6701 100.1 11.1715Z" fill="#FAC39D"/>
<path d="M101.069 7.5497C100.938 8.05107 100.422 8.348 99.9202 8.2117C99.4188 8.07541 99.1219 7.5643 99.2582 7.06292C99.3896 6.56154 99.9056 6.26461 100.407 6.40091C100.908 6.53721 101.205 7.05319 101.069 7.5497Z" fill="#FAC39D"/>
<path d="M102.038 3.93294C101.906 4.43431 101.39 4.73125 100.889 4.59495C100.387 4.45865 100.09 3.94754 100.227 3.44616C100.358 2.94478 100.874 2.64785 101.376 2.78415C101.877 2.92045 102.174 3.43156 102.038 3.93294Z" fill="#FAC39D"/>
<path d="M92.6915 17.0951C92.6039 17.6062 92.1171 17.9469 91.606 17.8545C91.0949 17.7668 90.759 17.2801 90.8466 16.769C90.9343 16.2578 91.421 15.9171 91.9321 16.0096C92.4384 16.0972 92.7791 16.584 92.6915 17.0951Z" fill="#FAC39D"/>
<path d="M93.3388 13.4054C93.2512 13.9165 92.7644 14.2572 92.2533 14.1647C91.7422 14.0771 91.4014 13.5903 91.4939 13.0792C91.5864 12.5681 92.0683 12.2322 92.5794 12.3199C93.0905 12.4075 93.4313 12.8942 93.3388 13.4054Z" fill="#FAC39D"/>
<path d="M93.9911 9.71546C93.9035 10.2266 93.4167 10.5673 92.9056 10.4748C92.3945 10.3872 92.0586 9.90044 92.1462 9.38932C92.2338 8.87821 92.7206 8.53746 93.2317 8.62995C93.7428 8.72244 94.0836 9.20435 93.9911 9.71546Z" fill="#FAC39D"/>
<path d="M94.6434 6.02594C94.5558 6.53705 94.0691 6.8778 93.5579 6.78531C93.0468 6.69769 92.7109 6.21091 92.7986 5.6998C92.8862 5.18869 93.373 4.84795 93.8841 4.94044C94.3903 5.03292 94.7311 5.51483 94.6434 6.02594Z" fill="#FAC39D"/>
<path d="M95.2909 2.33618C95.2033 2.84729 94.7165 3.18803 94.2054 3.09555C93.6943 3.00793 93.3584 2.52115 93.446 2.01004C93.5336 1.49893 94.0204 1.15819 94.5315 1.25068C95.0426 1.34317 95.3834 1.82994 95.2909 2.33618Z" fill="#FAC39D"/>
<path d="M87.1278 16.2631C87.084 16.779 86.6264 17.1587 86.1153 17.1149C85.5993 17.0711 85.2196 16.6135 85.2634 16.1024C85.3073 15.5864 85.7648 15.2068 86.2759 15.2506C86.7919 15.2944 87.1716 15.7471 87.1278 16.2631Z" fill="#FAC39D"/>
<path d="M87.454 12.5295C87.4101 13.0455 86.9526 13.4252 86.4415 13.3814C85.9255 13.3376 85.5458 12.88 85.5896 12.3689C85.6334 11.8578 86.091 11.4732 86.6021 11.517C87.1181 11.5608 87.4978 12.0135 87.454 12.5295Z" fill="#FAC39D"/>
<path d="M87.7801 8.8009C87.7363 9.31689 87.2788 9.69657 86.7676 9.65276C86.2517 9.60895 85.872 9.15138 85.9158 8.64027C85.9596 8.12429 86.4172 7.7446 86.9283 7.78841C87.4394 7.83222 87.8239 8.28492 87.7801 8.8009Z" fill="#FAC39D"/>
<path d="M88.1061 5.06722C88.0623 5.5832 87.6047 5.96288 87.0936 5.91907C86.5776 5.87526 86.1979 5.4177 86.2417 4.90659C86.2855 4.39547 86.7431 4.01092 87.2542 4.05473C87.7653 4.09854 88.1499 4.55124 88.1061 5.06722Z" fill="#FAC39D"/>
<path d="M88.4322 1.33368C88.3884 1.84966 87.9309 2.22935 87.4197 2.18554C86.9038 2.14173 86.5241 1.68416 86.5679 1.17304C86.6117 0.657063 87.0693 0.277379 87.5804 0.321189C88.0915 0.364999 88.4761 0.822567 88.4322 1.33368Z" fill="#FAC39D"/>
</svg>
