<svg width="40" height="40" viewBox="0 0 40 40" fill="none" xmlns="http://www.w3.org/2000/svg">
<g clip-path="url(#clip0)">
<path d="M33.75 27.3109H6.24979C5.98265 27.3109 5.74518 27.141 5.65863 26.8886L1.5477 14.8984C1.43612 14.5715 1.60993 14.2164 1.93644 14.1041C2.03658 14.0701 2.14101 14.0615 2.23792 14.0787C2.46394 14.0919 2.67459 14.2285 2.77222 14.4503C3.28041 15.6043 5.08822 19.3301 7.19715 19.3301C7.22326 19.3301 7.24972 19.3294 7.27654 19.3279C8.54863 19.2714 10.5381 17.8034 12.7922 11.1343C12.8784 10.8804 13.1163 10.7095 13.3841 10.7095C13.6523 10.7095 13.8902 10.8804 13.9763 11.1343C14.746 13.4085 17.3255 19.2933 20.0042 19.2933C20.0113 19.2933 20.0181 19.2929 20.0256 19.2929C21.2956 19.2775 23.2482 17.8524 25.3393 11.1483C25.4212 10.8869 25.6626 10.7095 25.9361 10.7095H25.9422C26.2183 10.7123 26.4597 10.8954 26.5362 11.1604C27.1753 13.3613 29.442 19.1259 32.2222 19.3666C33.8465 19.5003 35.6475 17.6621 37.4257 14.0311C37.5701 13.7346 37.9213 13.6013 38.2264 13.7282C38.5307 13.8545 38.6852 14.1956 38.5786 14.5082L34.3415 26.8886C34.2546 27.1414 34.0171 27.3109 33.75 27.3109ZM6.69611 26.061H33.3029L35.7516 18.9063C34.5682 20.1587 33.3666 20.7173 32.1134 20.6122C29.0343 20.3443 26.9214 15.9072 25.939 13.2991C24.2038 18.1428 22.2665 20.5163 20.0399 20.5424C20.0278 20.5424 20.0163 20.5432 20.0042 20.5432C16.8924 20.5432 14.4903 15.7728 13.402 13.1413C11.5452 18.0412 9.55249 20.4774 7.33198 20.5768C6.19365 20.6208 5.2023 20.0536 4.34864 19.2121L6.69611 26.061Z" fill="#F1AF87"/>
<path d="M33.7499 32.3109H6.24978C5.90431 32.3109 5.625 32.0313 5.625 31.6858V26.6858C5.625 26.3403 5.90431 26.061 6.24978 26.061C6.59524 26.061 6.87491 26.3403 6.87491 26.6858V31.061H33.1248V26.6858C33.1248 26.3403 33.4045 26.061 33.7499 26.061C34.0954 26.061 34.3747 26.3403 34.3747 26.6858V31.6858C34.3747 32.0313 34.0954 32.3109 33.7499 32.3109Z" fill="#F1AF87"/>
<path d="M13.6425 11.9595C12.4634 11.9595 11.5039 11 11.5039 9.8205C11.5039 8.6414 12.4634 7.68188 13.6425 7.68188C14.822 7.68188 15.7815 8.64176 15.7815 9.82086C15.7815 11 14.822 11.9595 13.6425 11.9595ZM13.6425 8.93215C13.1526 8.93215 12.7538 9.33091 12.7538 9.82086C12.7538 10.3112 13.1526 10.7096 13.6425 10.7096C14.1328 10.7096 14.5312 10.3108 14.5312 9.82086C14.5312 9.33055 14.1328 8.93215 13.6425 8.93215Z" fill="#F1AF87"/>
<path d="M25.7517 11.9595C24.5726 11.9595 23.613 11 23.613 9.8205C23.613 8.6414 24.5726 7.68188 25.7517 7.68188C26.9311 7.68188 27.8906 8.64176 27.8906 9.82086C27.8906 11 26.9311 11.9595 25.7517 11.9595ZM25.7517 8.93215C25.2617 8.93215 24.8629 9.33091 24.8629 9.82086C24.8629 10.3112 25.2617 10.7096 25.7517 10.7096C26.242 10.7096 26.6407 10.3112 26.6407 9.82086C26.6407 9.33091 26.242 8.93215 25.7517 8.93215Z" fill="#F1AF87"/>
<path d="M37.8614 14.9867C36.6819 14.9867 35.7224 14.0272 35.7224 12.8481C35.7224 11.669 36.6819 10.7095 37.8614 10.7095C39.0405 10.7095 40 11.669 40 12.8481C40 14.0272 39.0405 14.9867 37.8614 14.9867ZM37.8614 11.9594C37.3711 11.9594 36.9727 12.3578 36.9727 12.8481C36.9727 13.3384 37.3711 13.7368 37.8614 13.7368C38.3513 13.7368 38.7501 13.3384 38.7501 12.8481C38.7501 12.3578 38.3513 11.9594 37.8614 11.9594Z" fill="#F1AF87"/>
<path d="M2.13861 14.9867C0.959516 14.9867 0 14.0272 0 12.8481C0 11.669 0.959516 10.7095 2.13861 10.7095C3.31807 10.7095 4.27759 11.669 4.27759 12.8481C4.27759 14.0272 3.31771 14.9867 2.13861 14.9867ZM2.13861 11.9594C1.64866 11.9594 1.24991 12.3578 1.24991 12.8481C1.24991 13.3384 1.64866 13.7368 2.13861 13.7368C2.62892 13.7368 3.02768 13.3384 3.02768 12.8481C3.02768 12.3578 2.62892 11.9594 2.13861 11.9594Z" fill="#F1AF87"/>
</g>
<defs>
<clipPath id="clip0">
<rect width="40" height="40" fill="white"/>
</clipPath>
</defs>
</svg>
