<svg width="40" height="40" viewBox="0 0 40 40" fill="none" xmlns="http://www.w3.org/2000/svg">
<path d="M19.9999 6.52181C20.4782 6.52181 20.8695 6.13051 20.8695 5.65225V5.21746C20.8695 4.7392 20.4782 4.3479 19.9999 4.3479C19.5217 4.3479 19.1304 4.7392 19.1304 5.21746V5.65225C19.1304 6.13051 19.5217 6.52181 19.9999 6.52181Z" fill="#F1AF87"/>
<path d="M19.9999 33.4783C19.5217 33.4783 19.1304 33.8696 19.1304 34.3478V34.7826C19.1304 35.2609 19.5217 35.6522 19.9999 35.6522C20.4782 35.6522 20.8695 35.2609 20.8695 34.7826V34.3478C20.8695 33.8696 20.4782 33.4783 19.9999 33.4783Z" fill="#F1AF87"/>
<path d="M5.65225 19.1304H5.21746C4.7392 19.1304 4.3479 19.5217 4.3479 19.9999C4.3479 20.4782 4.7392 20.8695 5.21746 20.8695H5.65225C6.13051 20.8695 6.52181 20.4782 6.52181 19.9999C6.52181 19.5217 6.13051 19.1304 5.65225 19.1304Z" fill="#F1AF87"/>
<path d="M34.7826 19.1304H34.3478C33.8696 19.1304 33.4783 19.5217 33.4783 19.9999C33.4783 20.4782 33.8696 20.8695 34.3478 20.8695H34.7826C35.2609 20.8695 35.6522 20.4782 35.6522 19.9999C35.6522 19.5217 35.2609 19.1304 34.7826 19.1304Z" fill="#F1AF87"/>
<path d="M10.1741 8.95667C9.82624 8.60884 9.3045 8.60884 8.95667 8.95667C8.60884 9.3045 8.60884 9.82624 8.95667 10.1741L9.26102 10.4784C9.43493 10.6523 9.65232 10.7393 9.86971 10.7393C10.0871 10.7393 10.3045 10.6523 10.4784 10.4784C10.8262 10.1306 10.8262 9.60884 10.4784 9.26102L10.1741 8.95667Z" fill="#F1AF87"/>
<path d="M9.26102 29.5216L8.95667 29.826C8.60884 30.1738 8.60884 30.6955 8.95667 31.0434C9.13058 31.2173 9.34797 31.3042 9.56537 31.3042C9.78276 31.3042 10.0001 31.2173 10.1741 31.0434L10.4784 30.739C10.8262 30.3912 10.8262 29.8694 10.4784 29.5216C10.1306 29.1738 9.60884 29.1738 9.26102 29.5216Z" fill="#F1AF87"/>
<path d="M29.826 8.95667L29.5216 9.26102C29.1738 9.60884 29.1738 10.1306 29.5216 10.4784C29.6955 10.6523 29.9129 10.7393 30.1303 10.7393C30.3477 10.7393 30.5651 10.6523 30.739 10.4784L31.0433 10.1741C31.3912 9.82624 31.3912 9.3045 31.0433 8.95667C30.6955 8.60884 30.1738 8.60884 29.826 8.95667Z" fill="#F1AF87"/>
<path d="M20.8695 19.6522V11.7392C20.8695 11.2609 20.4782 10.8696 19.9999 10.8696C19.5217 10.8696 19.1304 11.2609 19.1304 11.7392V20.0001C19.1304 20.2175 19.2173 20.4348 19.3912 20.6088L28.913 30.1305C29.0869 30.3044 29.3043 30.3914 29.5217 30.3914C29.7391 30.3914 29.9565 30.3044 30.1304 30.1305C30.4782 29.7827 30.4782 29.2609 30.1304 28.9131L20.8695 19.6522Z" fill="#F1AF87"/>
<path d="M20 0C8.95652 0 0 8.95652 0 20C0 31.0435 8.95652 40 20 40C31.0435 40 40 31.0435 40 20C40 8.95652 31.0435 0 20 0ZM20 38.2609C9.91304 38.2609 1.73913 30.087 1.73913 20C1.73913 9.91304 9.91304 1.73913 20 1.73913C30.087 1.73913 38.2609 9.91304 38.2609 20C38.2609 30.087 30.087 38.2609 20 38.2609Z" fill="#F1AF87"/>
</svg>
