<svg width="56" height="56" viewBox="0 0 56 56" fill="none" xmlns="http://www.w3.org/2000/svg">
<path fill-rule="evenodd" clip-rule="evenodd" d="M34.8121 2.577L28 0L21.1879 2.577L14 3.75156L9.38893 9.38924L3.7513 14L2.57684 21.1878L0 28L2.57684 34.8122L3.7513 42L9.38893 46.6108L14 52.2484L21.1879 53.423L28 56L34.8121 53.423L42 52.2484L46.6111 46.6108L52.2487 42L53.4232 34.8122L56 28L53.4232 21.1878L52.2487 14L46.6111 9.38924L42 3.75156L34.8121 2.577ZM23.8952 35.6739L24.2349 30.9835L32.9849 23.2695C33.3656 22.939 32.9027 22.7555 32.3936 23.0866L21.5766 29.7318L16.9197 28.3099C15.9067 28.0012 15.8879 27.3213 17.1311 26.8473L35.3462 20.0004C36.1899 19.6924 36.9274 20.1833 36.6519 21.4411L33.553 35.6976C33.3194 36.7038 32.7094 36.9536 31.8435 36.4796L27.1225 33.0853L24.8441 35.223C24.5917 35.4691 24.3812 35.6739 23.8952 35.6739Z" fill="#FAC39D"/>
</svg>
