<svg width="78" height="79" viewBox="0 0 78 79" fill="none" xmlns="http://www.w3.org/2000/svg">
<g clip-path="url(#clip0)">
<path d="M38.894 20.4633C38.8935 20.4637 38.893 20.4641 38.8925 20.4647L30.7675 28.6309C30.1588 29.2427 30.1611 30.2322 30.7728 30.8412C31.3844 31.4501 32.3737 31.4478 32.9825 30.836L38.4375 25.3531L38.4375 58.4513C38.4375 59.3145 39.137 60.0142 40 60.0142C40.863 60.0142 41.5625 59.3145 41.5625 58.4513L41.5625 25.3532L47.0175 30.8359C47.6262 31.4477 48.6155 31.45 49.2272 30.8411C49.839 30.2322 49.8411 29.2426 49.2325 28.6309L41.1075 20.4646C41.107 20.4641 41.1065 20.4637 41.106 20.4632C40.4952 19.8511 39.5027 19.853 38.894 20.4633Z" fill="url(#paint0_linear)"/>
</g>
<path d="M77.5 39.0088C77.5 60.2767 60.2629 77.5176 39 77.5176C17.7371 77.5176 0.5 60.2767 0.5 39.0088C0.5 17.7409 17.7371 0.5 39 0.5C60.2629 0.5 77.5 17.7409 77.5 39.0088Z" stroke="url(#paint1_linear)"/>
<defs>
<linearGradient id="paint0_linear" x1="40" y1="20.0049" x2="40" y2="60.0142" gradientUnits="userSpaceOnUse">
<stop stop-color="#F1AF87"/>
<stop offset="1" stop-color="#F1AF87" stop-opacity="0"/>
</linearGradient>
<linearGradient id="paint1_linear" x1="39" y1="0" x2="39" y2="78.0176" gradientUnits="userSpaceOnUse">
<stop stop-color="#F1AF87"/>
<stop offset="1" stop-color="#F1AF87" stop-opacity="0"/>
</linearGradient>
<clipPath id="clip0">
<rect width="40.0093" height="40" fill="white" transform="translate(20 60.0142) rotate(-90)"/>
</clipPath>
</defs>
</svg>
