<svg width="56" height="56" viewBox="0 0 56 56" fill="none" xmlns="http://www.w3.org/2000/svg">
<path fill-rule="evenodd" clip-rule="evenodd" d="M34.8121 2.577L28 0L21.1879 2.577L14 3.75156L9.38893 9.38924L3.75126 14L2.57684 21.1878L0 28L2.57684 34.8122L3.75126 42L9.38893 46.6108L14 52.2484L21.1879 53.423L28 56L34.8121 53.423L42 52.2484L46.6111 46.6108L52.2487 42L53.4232 34.8122L56 28L53.4232 21.1878L52.2487 14L46.6111 9.38924L42 3.75156L34.8121 2.577ZM33.6 20.5194H31.5552C29.9519 20.5194 29.6421 21.3069 29.6412 22.4577V25.2012H33.2593L32.7638 29.1825H29.6421V39.2H25.6533V29.1819H22.4V25.2H25.6533V22.0634C25.6533 18.6545 27.6729 16.8 30.6211 16.8C31.4122 16.8 32.1408 16.8346 32.6907 16.8729C33.1229 16.9033 33.4447 16.9367 33.6 16.958V20.5194Z" fill="#FAC39D"/>
</svg>
