<svg width="56" height="56" viewBox="0 0 56 56" fill="none" xmlns="http://www.w3.org/2000/svg">
<path fill-rule="evenodd" clip-rule="evenodd" d="M34.8121 2.577L28 0L21.1879 2.577L14 3.75156L9.38893 9.38924L3.7513 14L2.57684 21.1878L0 28L2.57684 34.8122L3.7513 42L9.38893 46.6108L14 52.2484L21.1879 53.423L28 56L34.8121 53.423L42 52.2484L46.6111 46.6108L52.2487 42L53.4232 34.8122L56 28L53.4232 21.1878L52.2487 14L46.6111 9.38924L42 3.75156L34.8121 2.577ZM38.5778 28C38.5778 22.1679 33.835 17.4222 28.0027 17.4222H27.9973C22.165 17.4222 17.4222 22.1661 17.4222 28C17.4222 30.3139 18.1679 32.4582 19.436 34.1997L18.1177 38.1293L22.1836 36.8296C23.8562 37.9379 25.8514 38.5778 28.0027 38.5778C33.835 38.5778 38.5778 33.8321 38.5778 28ZM34.1576 32.3592C33.9024 33.0799 32.8896 33.6778 32.0817 33.8522C31.529 33.9701 30.8071 34.0636 28.3769 33.0562C25.5006 31.8646 23.5718 29.0713 23.176 28.4983C23.1441 28.4515 23.1221 28.4199 23.1104 28.4047L23.0964 28.3852C22.9025 28.1209 21.8543 26.6911 21.8543 25.214C21.8543 23.7398 22.5815 23.0003 22.908 22.668L22.9359 22.6394C23.191 22.3793 23.6128 22.2602 24.0174 22.2602C24.0953 22.2602 24.1685 22.2627 24.2373 22.2657L24.3718 22.2724C24.6826 22.2852 24.8385 22.304 25.0435 22.7944L25.3485 23.5332C25.6231 24.1992 25.9424 24.974 25.9942 25.0833C26.0695 25.2395 26.1449 25.451 26.0392 25.6557C25.9461 25.8538 25.8636 25.9492 25.7251 26.1084L25.6967 26.1412C25.6314 26.216 25.5675 26.284 25.504 26.3515C25.4496 26.4092 25.3953 26.4669 25.3404 26.5289C25.3061 26.5678 25.2716 26.6079 25.2366 26.651L25.2288 26.6608C25.088 26.826 24.9357 27.0047 25.1122 27.3097C25.2921 27.6142 25.9135 28.6283 26.8285 29.4425C27.9133 30.4081 28.8095 30.7702 29.2136 30.9337L29.309 30.9726C29.5642 31.0783 29.8683 31.0528 30.0547 30.8547C30.2593 30.6341 30.5054 30.2878 30.7605 29.9293L30.8811 29.7597C31.0927 29.4608 31.3598 29.4243 31.6401 29.53C31.8466 29.6017 32.6944 30.0125 33.2654 30.2926C33.4838 30.3996 33.6617 30.4877 33.7477 30.5308L33.8767 30.594L33.9265 30.6183C34.1375 30.7198 34.279 30.7878 34.3387 30.8918C34.4128 31.0224 34.4128 31.6373 34.1576 32.3592Z" fill="#FAC39D"/>
</svg>
