<svg width="22" height="50" viewBox="0 0 22 50" fill="none" xmlns="http://www.w3.org/2000/svg">
<g clip-path="url(#clip0)">
<path d="M11.0171 0C14.5854 0 17.4883 3.03486 17.4883 6.7653V16.2347C17.4883 19.9651 14.5854 23 11.0171 23C7.44886 23 4.54595 19.9651 4.54595 16.2347V6.7653C4.54595 3.03486 7.44886 0 11.0171 0ZM5.8659 16.2347C5.8659 19.2041 8.17681 21.6201 11.0171 21.6201C13.8574 21.6201 16.1683 19.2041 16.1683 16.2347V6.7653C16.1683 3.7959 13.8574 1.37994 11.0171 1.37994C8.17681 1.37994 5.8659 3.7959 5.8659 6.7653V16.2347Z" fill="#F1AF87"/>
<path d="M11.017 4.57544C11.3816 4.57544 11.677 4.88428 11.677 5.26541V8.44118C11.677 8.82214 11.3816 9.13115 11.017 9.13115C10.6526 9.13115 10.3571 8.82214 10.3571 8.44118V5.26541C10.3571 4.88428 10.6525 4.57544 11.017 4.57544Z" fill="#F1AF87"/>
</g>
<g clip-path="url(#clip1)">
<path d="M11.553 49.7709C11.5532 49.7706 11.5535 49.7704 11.5538 49.7702L15.6163 45.688C15.9206 45.3821 15.9195 44.8875 15.6136 44.5831C15.3078 44.2787 14.8131 44.2799 14.5088 44.5857L11.7813 47.3265L11.7813 30.7812C11.7813 30.3498 11.4315 30 11 30C10.5685 30 10.2188 30.3498 10.2188 30.7812L10.2188 47.3264L7.49125 44.5857C7.18688 44.2799 6.69223 44.2788 6.38641 44.5831C6.08051 44.8875 6.07945 45.3822 6.38375 45.688L10.4463 49.7702C10.4465 49.7704 10.4468 49.7706 10.447 49.7709C10.7524 50.0769 11.2486 50.0759 11.553 49.7709Z" fill="#F1AF87"/>
</g>
<defs>
<clipPath id="clip0">
<rect width="22" height="23" fill="white" transform="matrix(-1 0 0 1 22 0)"/>
</clipPath>
<clipPath id="clip1">
<rect width="20" height="20" fill="white" transform="translate(21 30) rotate(90)"/>
</clipPath>
</defs>
</svg>
