<svg width="20" height="27" viewBox="0 0 20 27" fill="none" xmlns="http://www.w3.org/2000/svg">
<path d="M9.71699 0.260742C4.50314 0.260742 0.260864 4.63386 0.260864 10.0091C0.260864 11.4111 0.539248 12.7498 1.08787 13.9882C3.45216 19.3214 7.98517 24.9521 9.31847 26.5507C9.41837 26.6702 9.564 26.739 9.71725 26.739C9.87051 26.739 10.0161 26.6702 10.116 26.5507C11.4488 24.9524 15.9818 19.3219 18.3469 13.9882C18.8958 12.7498 19.1739 11.4111 19.1739 10.0091C19.1734 4.63386 14.9311 0.260742 9.71699 0.260742ZM9.71699 15.0724C7.00859 15.0724 4.80492 12.8007 4.80492 10.0088C4.80492 7.2166 7.00859 4.94495 9.71699 4.94495C12.4254 4.94495 14.6291 7.2166 14.6291 10.0088C14.6293 12.8007 12.4257 15.0724 9.71699 15.0724Z" fill="#F1AF87"/>
</svg>
