<svg width="56" height="56" viewBox="0 0 56 56" fill="none" xmlns="http://www.w3.org/2000/svg">
<path fill-rule="evenodd" clip-rule="evenodd" d="M34.8121 2.577L28 0L21.1879 2.577L14 3.75156L9.38893 9.38924L3.7513 14L2.57684 21.1878L0 28L2.57684 34.8122L3.7513 42L9.38893 46.6108L14 52.2484L21.1879 53.423L28 56L34.8121 53.423L42 52.2484L46.6111 46.6108L52.2487 42L53.4232 34.8122L56 28L53.4232 21.1878L52.2487 14L46.6111 9.38924L42 3.75156L34.8121 2.577ZM36.2414 18.4698C38.0898 20.1481 39.1151 23.8559 38.4226 29.7287C37.8167 34.9095 34.3506 35.8276 33.1859 36.1369L33.0859 36.1636L32.9756 36.194L32.9139 36.2135C32.5996 36.3186 29.8332 37.0392 26.231 36.7245L25.8717 37.1571C24.039 39.3665 23.723 39.7469 23.0709 39.5342C22.4654 39.3422 22.5012 38.387 22.5012 38.387V36.0299C17.2383 34.4865 17.3118 28.7966 17.3737 25.759C17.4356 22.7227 18.0005 20.2696 19.6042 18.5986C23.1754 15.1819 33.2563 15.606 36.2414 18.4698ZM23.5971 38.6738C24.3061 37.93 26.586 35.0662 26.586 35.0662C29.6407 35.2716 32.0734 34.6415 32.3355 34.5534C32.3622 34.5443 32.3941 34.5352 32.4308 34.5254L32.5828 34.4872L32.5939 34.4847C33.5849 34.2441 36.3402 33.5739 36.8498 29.2973C36.8495 29.2882 36.8508 29.27 36.8531 29.2426L36.8686 29.0792C36.9898 27.8487 37.5766 21.8938 35.0709 19.6559C32.8191 17.5237 23.9812 16.862 20.8481 19.8218C19.4901 21.22 19.0297 23.2963 18.9813 25.8319L18.9757 26.1011C18.9204 28.6951 18.8232 33.2561 23.1319 34.4999L23.123 36.366L23.1145 38.4137C23.1106 38.8931 23.365 38.9156 23.5971 38.6738ZM27.847 20.3784C27.4746 20.3784 27.4746 20.9629 27.847 20.9678C30.7362 20.9903 33.1157 23.0192 33.1418 26.7404C33.1418 27.1335 33.7125 27.1286 33.7067 26.7355C33.6758 22.7257 31.0777 20.4009 27.847 20.3784ZM32.2147 26.137C32.2099 26.5295 31.6402 26.5107 31.6489 26.123C31.6934 24.1871 30.5317 22.6704 28.3263 22.5021C27.9548 22.4747 27.9935 21.8853 28.366 21.9127C30.9089 22.1041 32.2621 23.9258 32.2147 26.137ZM31.0374 28.6374C30.5595 28.3591 30.073 28.5323 29.8718 28.8063L29.451 29.355C29.2373 29.6333 28.8378 29.5963 28.8378 29.5963C25.9224 28.8197 25.1428 25.7463 25.1428 25.7463C25.1428 25.7463 25.1335 25.6387 25.1594 25.5044C25.1844 25.3738 25.2425 25.217 25.3739 25.107L25.9002 24.6683C26.1633 24.4581 26.3296 23.9513 26.0617 23.453C25.5223 22.4711 25.1163 21.974 24.8443 21.6411C24.7554 21.5323 24.6808 21.4411 24.6205 21.3561C24.3632 21.0316 23.9763 20.9587 23.5738 21.178H23.5651C22.7285 21.6708 21.8125 22.5938 22.1055 23.5442C22.1911 23.7155 22.2889 23.9507 22.4069 24.2351L22.412 24.2478C22.985 25.6302 24.0327 28.158 26.4534 30.1516C27.8299 31.2928 30.0082 32.4625 30.9329 32.7323L30.9416 32.7457C31.8528 33.0519 32.7388 32.0931 33.2118 31.2247V31.2181C33.4217 30.7982 33.352 30.4002 33.0454 30.1401C32.5018 29.606 31.6816 29.0166 31.0374 28.6374ZM30.1918 25.6357C30.1435 24.6313 29.6927 24.1421 28.7632 24.0874C28.3869 24.0649 28.4217 23.4755 28.7941 23.498C30.0168 23.5661 30.6958 24.297 30.7577 25.6083C30.7751 26.0015 30.2093 26.0282 30.1918 25.6357Z" fill="#FAC39D"/>
</svg>
