<svg width="56" height="56" viewBox="0 0 56 56" fill="none" xmlns="http://www.w3.org/2000/svg">
<path fill-rule="evenodd" clip-rule="evenodd" d="M34.8121 2.577L28 0L21.1879 2.577L14 3.75156L9.38893 9.38924L3.7513 14L2.57684 21.1878L0 28L2.57684 34.8122L3.7513 42L9.38893 46.6108L14 52.2484L21.1879 53.423L28 56L34.8121 53.423L42 52.2484L46.6111 46.6108L52.2487 42L53.4232 34.8122L56 28L53.4232 21.1878L52.2487 14L46.6111 9.38924L42 3.75156L34.8121 2.577ZM16.8 23.8C16.8 19.9348 19.9346 16.8 23.8 16.8H32.2C36.0654 16.8 39.2 19.9348 39.2 23.8V32.2C39.2 36.0652 36.0654 39.2 32.2 39.2H23.8C19.9346 39.2 16.8 36.0652 16.8 32.2V23.8ZM32.2 37.1C34.902 37.1 37.1 34.9022 37.1 32.2V23.8C37.1 21.0978 34.902 18.9 32.2 18.9H23.8C21.098 18.9 18.9 21.0978 18.9 23.8V32.2C18.9 34.9022 21.098 37.1 23.8 37.1H32.2ZM28 22.4C24.9074 22.4 22.4 24.9071 22.4 28C22.4 31.0929 24.9074 33.6 28 33.6C31.0926 33.6 33.6 31.0929 33.6 28C33.6 24.9071 31.0926 22.4 28 22.4ZM28 31.5C26.0708 31.5 24.5 29.9293 24.5 28C24.5 26.0695 26.0708 24.5 28 24.5C29.9292 24.5 31.5 26.0695 31.5 28C31.5 29.9293 29.9292 31.5 28 31.5ZM34.7664 21.9795C34.7664 22.3915 34.4324 22.7257 34.0203 22.7257C33.6081 22.7257 33.2741 22.3915 33.2741 21.9795C33.2741 21.5675 33.6081 21.2333 34.0203 21.2333C34.4324 21.2333 34.7664 21.5675 34.7664 21.9795Z" fill="#FAC39D"/>
</svg>
