<svg width="40" height="40" viewBox="0 0 40 40" fill="none" xmlns="http://www.w3.org/2000/svg">
<g clip-path="url(#clip0)">
<path d="M39.5147 15.5974C39.0139 13.368 38.1315 11.242 36.9063 9.31334C35.3164 6.80524 33.1912 4.68006 30.6831 3.09022C28.7541 1.86546 26.6276 0.983803 24.3978 0.484278C21.5013 -0.159473 18.4987 -0.159473 15.6022 0.484278C13.3724 0.98399 11.246 1.86575 9.31688 3.09053C6.80893 4.67963 4.68374 6.80407 3.09375 9.31147C1.86826 11.2409 0.985675 13.3678 0.485003 15.598C-0.161668 18.4952 -0.161668 21.4993 0.485003 24.3965C0.984129 26.6277 1.86682 28.7553 3.09375 30.6846C4.68278 33.1907 6.80641 35.3143 9.3125 36.9033C11.242 38.1305 13.37 39.0133 15.6016 39.5124C18.4978 40.1593 21.501 40.1593 24.3972 39.5124C26.629 39.0139 28.7574 38.1317 30.6875 36.9052C33.1936 35.3162 35.3173 33.1926 36.9063 30.6865C38.1337 28.7569 39.0167 26.6288 39.5159 24.3971C40.1628 21.4997 40.1628 18.4954 39.5159 15.598L39.5147 15.5974ZM35.625 22.7958V17.2002L38.5588 16.4015C39.0235 18.7765 39.0235 21.2192 38.5588 23.5943L35.625 22.7958ZM35.6672 9.42803L33.0278 10.938L29.0703 6.98147L30.5819 4.33928C32.5846 5.69714 34.3101 7.42419 35.6663 9.42803H35.6672ZM20 1.09272C21.207 1.09475 22.4111 1.21152 23.5959 1.44147L22.7978 4.37397H17.2022L16.4041 1.44115C17.589 1.21145 18.793 1.09478 20 1.09272ZM9.43001 4.33178L10.9375 6.96553L6.98094 10.9218L4.34375 9.41303C5.70086 7.41144 7.42708 5.68691 9.43001 4.33178ZM1.44219 23.5927C0.977814 21.2178 0.977814 18.7754 1.44219 16.4005L4.3775 17.1993V22.793L1.44219 23.5927ZM4.34375 30.583L6.97657 29.0765L10.9331 33.033L9.4275 35.6633C7.42581 34.3079 5.70051 32.5838 4.34375 30.583ZM16.4063 38.5562L17.2044 35.6208H22.7978L23.5963 38.5562C21.2202 39.009 18.7801 39.009 16.4041 38.5562H16.4063ZM30.585 35.6552L29.0756 33.0168L33.0313 29.0615L35.6663 30.569C34.3109 32.5717 32.5864 34.2979 30.585 35.6552ZM36.2572 29.6452L33.2128 27.9052C33.1087 27.8454 32.9877 27.8216 32.8687 27.8375C32.7497 27.8533 32.6392 27.908 32.5544 27.993L28.0069 32.539C27.9219 32.6237 27.8673 32.7341 27.8513 32.8531C27.8354 32.9721 27.8591 33.0929 27.9188 33.1971L29.6628 36.2458C28.1069 37.177 26.4234 37.8763 24.6656 38.3215L23.7431 34.9305C23.7117 34.8147 23.643 34.7124 23.5477 34.6395C23.4523 34.5666 23.3357 34.5271 23.2156 34.5271H16.7844C16.6643 34.5271 16.5476 34.5666 16.4522 34.6395C16.3568 34.7124 16.2881 34.8147 16.2566 34.9305L15.3344 38.3215C13.5811 37.8775 11.9018 37.1808 10.3491 36.2533L12.0891 33.2133C12.1487 33.1092 12.1724 32.9883 12.1565 32.8694C12.1406 32.7504 12.0859 32.64 12.0009 32.5552L7.45344 28.0074C7.36862 27.9225 7.25821 27.8679 7.13925 27.852C7.0203 27.8362 6.89943 27.8599 6.79532 27.9196L3.7525 29.6612C2.8214 28.1051 2.12226 26.4215 1.67719 24.6637L5.06782 23.7415C5.18362 23.7099 5.28583 23.6411 5.35868 23.5458C5.43153 23.4504 5.47098 23.3337 5.47094 23.2137V16.7824C5.47096 16.6624 5.4315 16.5458 5.35865 16.4504C5.28579 16.3551 5.18359 16.2864 5.06782 16.2549L1.6775 15.3327C2.12379 13.5751 2.82318 11.8917 3.75375 10.3352L6.80063 12.0787C6.90471 12.1384 7.02561 12.1622 7.14459 12.1464C7.26357 12.1305 7.37399 12.0758 7.45875 11.9908L12.0063 7.44334C12.0912 7.35856 12.1459 7.24816 12.1618 7.12921C12.1777 7.01025 12.154 6.88936 12.0944 6.78522L10.3525 3.74209C11.9046 2.81654 13.5827 2.12077 15.3344 1.67647L16.2566 5.06459C16.2881 5.18039 16.3569 5.2826 16.4523 5.35545C16.5477 5.4283 16.6644 5.46775 16.7844 5.46772H23.2156C23.3356 5.46779 23.4523 5.42835 23.5477 5.35549C23.643 5.28262 23.7117 5.18039 23.7431 5.06459L24.6656 1.67647C26.4218 2.12176 28.104 2.81989 29.6594 3.74897L27.9134 6.80084C27.8538 6.90498 27.8301 7.02587 27.846 7.14483C27.862 7.26379 27.9166 7.37418 28.0016 7.45897L32.5491 12.0065C32.6339 12.0914 32.7444 12.146 32.8634 12.162C32.9824 12.1779 33.1033 12.1542 33.2075 12.0946L36.2563 10.3508C37.1817 11.9028 37.8777 13.5805 38.3225 15.3318L34.9338 16.2546C34.818 16.2861 34.7157 16.3548 34.6428 16.4501C34.5699 16.5454 34.5304 16.6621 34.5303 16.7821V23.2133C34.5304 23.3334 34.5699 23.4501 34.6428 23.5455C34.7157 23.6409 34.8179 23.7096 34.9338 23.7412L38.3228 24.6633C37.8793 26.4153 37.1835 28.0934 36.2572 29.6452Z" fill="#F1AF87"/>
<path d="M20 7.8125C17.5895 7.8125 15.2332 8.52728 13.229 9.86647C11.2248 11.2056 9.66267 13.1091 8.74022 15.3361C7.81778 17.563 7.57643 20.0135 8.04668 22.3777C8.51694 24.7418 9.67769 26.9134 11.3821 28.6179C13.0866 30.3223 15.2582 31.4831 17.6223 31.9533C19.9865 32.4236 22.437 32.1822 24.664 31.2598C26.8909 30.3374 28.7944 28.7752 30.1335 26.771C31.4727 24.7668 32.1875 22.4105 32.1875 20C32.1839 16.7688 30.8987 13.671 28.6138 11.3862C26.329 9.10135 23.2312 7.81614 20 7.8125ZM20 31.0938C17.8059 31.0938 15.661 30.4431 13.8366 29.2241C12.0123 28.0051 10.5904 26.2725 9.75072 24.2454C8.91106 22.2183 8.69136 19.9877 9.11942 17.8357C9.54747 15.6837 10.6041 13.707 12.1555 12.1555C13.707 10.604 15.6837 9.54747 17.8357 9.11941C19.9877 8.69136 22.2183 8.91105 24.2454 9.75071C26.2725 10.5904 28.0051 12.0123 29.2241 13.8366C30.4431 15.661 31.0938 17.8059 31.0938 20C31.0904 22.9412 29.9206 25.7611 27.8408 27.8408C25.761 29.9206 22.9412 31.0905 20 31.0938Z" fill="#F1AF87"/>
<path d="M20.3867 12.8571C20.336 12.8063 20.2757 12.7659 20.2094 12.7384C20.143 12.7109 20.0719 12.6968 20.0001 12.6968C19.9283 12.6968 19.8572 12.7109 19.7909 12.7384C19.7246 12.7659 19.6643 12.8063 19.6136 12.8571L14.9733 17.4971C14.4252 18.0445 14.0562 18.7454 13.9151 19.5072C13.774 20.2689 13.8674 21.0554 14.1831 21.7629C14.4987 22.4703 15.0216 23.0653 15.6827 23.4691C16.3438 23.8729 17.1119 24.0665 17.8854 24.0243C17.6985 24.8897 17.3644 25.7166 16.8976 26.469C16.8459 26.5517 16.8173 26.6469 16.8147 26.7444C16.8122 26.842 16.8358 26.9385 16.8832 27.0238C16.9306 27.1092 16.9999 27.1803 17.0841 27.2298C17.1682 27.2793 17.2641 27.3053 17.3617 27.3052H22.6386C22.7362 27.3053 22.832 27.2793 22.9162 27.2298C23.0003 27.1803 23.0697 27.1092 23.1171 27.0238C23.1644 26.9385 23.1881 26.842 23.1855 26.7444C23.183 26.6469 23.1544 26.5517 23.1026 26.469C22.636 25.7171 22.3019 24.8907 22.1148 24.0258C22.8886 24.0684 23.6572 23.8749 24.3186 23.4711C24.9801 23.0672 25.5033 22.472 25.819 21.7642C26.1347 21.0564 26.228 20.2695 26.0866 19.5075C25.9452 18.7455 25.5757 18.0444 25.027 17.4971L20.3867 12.8571ZM24.2539 22.1383C23.9114 22.4787 23.4852 22.7227 23.0183 22.8458C22.5514 22.9688 22.0603 22.9666 21.5945 22.8393C21.5081 22.8155 21.4171 22.8134 21.3296 22.8331C21.2422 22.8528 21.1609 22.8937 21.093 22.9522C21.025 23.0107 20.9725 23.085 20.9401 23.1686C20.9077 23.2522 20.8963 23.3424 20.907 23.4315C21.0232 24.3957 21.2964 25.3345 21.7158 26.2105H18.2845C18.7042 25.3343 18.9776 24.3953 19.0939 23.4308C19.1045 23.3418 19.0931 23.2516 19.0606 23.1681C19.0282 23.0845 18.9757 23.0102 18.9078 22.9517C18.8399 22.8932 18.7586 22.8523 18.6712 22.8326C18.5838 22.8129 18.4928 22.815 18.4064 22.8386C17.8246 22.9993 17.206 22.9628 16.6471 22.735C16.0882 22.5071 15.6205 22.1007 15.3169 21.579C15.0132 21.0574 14.8908 20.45 14.9687 19.8515C15.0465 19.253 15.3203 18.6971 15.7473 18.2705L20.0001 14.0168L24.2539 18.2705C24.7658 18.7838 25.0533 19.4792 25.0533 20.2041C25.0533 20.9291 24.7658 21.6244 24.2539 22.1377V22.1383Z" fill="#F1AF87"/>
</g>
<defs>
<clipPath id="clip0">
<rect width="40" height="40" fill="white"/>
</clipPath>
</defs>
</svg>
